<svg xmlns="http://www.w3.org/2000/svg" width="30" height="138" viewBox="0 0 30 138">
  <metadata><?xpacket begin="﻿" id="W5M0MpCehiHzreSzNTczkc9d"?>
<x:xmpmeta xmlns:x="adobe:ns:meta/" x:xmptk="Adobe XMP Core 5.6-c138 79.159824, 2016/09/14-01:09:01        ">
   <rdf:RDF xmlns:rdf="http://www.w3.org/1999/02/22-rdf-syntax-ns#">
      <rdf:Description rdf:about=""/>
   </rdf:RDF>
</x:xmpmeta>
                                                                                                    
                                                                                                    

<?xpacket end="w"?></metadata>
<defs>
    <style>
      .cls-1 {
        fill: #f60;
        fill-rule: evenodd;
        opacity: 0.2;
      }
    </style>
  </defs>
  <path id="СЛЕД_ШИН_копия" data-name="СЛЕД ШИН копия" class="cls-1" d="M960.286,971.618L975,963.284V972.6l-6.489,3.676-8.221,4.658-8.222-4.658-7.061-4v-9.315Zm0,24.062L975,987.347v9.314l-6.489,3.679-8.221,4.66-8.222-4.66-7.061-4v-9.315Zm0-96.22L975,891.127v9.315l-6.489,3.676-8.221,4.658-8.222-4.658-7.061-4V890.8Zm0-23.8L975,867.326v9.315l-6.489,3.676-8.221,4.659-8.222-4.659-7.061-4V867Zm0,47.855L975,915.181V924.5l-6.489,3.676-8.221,4.659-8.222-4.659-7.061-4v-9.315Zm0,23.951L975,939.132v9.315l-6.489,3.676-8.221,4.658-8.222-4.658-7.061-4v-9.314Z" transform="translate(-945 -867)"/>
</svg>
