<svg version="1.1" xmlns="http://www.w3.org/2000/svg" xmlns:xlink="http://www.w3.org/1999/xlink" x="0px" y="0px" width="133.67px"
	 height="130.105px" viewBox="0 0 133.67 130.105" enable-background="new 0 0 133.67 130.105" xml:space="preserve">


		<path fill="#ffffff" d="M130.678,21.13h-18.117V3.014c0-1.652-1.339-2.992-2.992-2.992c-1.653,0-2.992,1.34-2.992,2.992V21.13H88.462
			c-1.653,0-2.992,1.34-2.992,2.992c0,1.652,1.339,2.992,2.992,2.992h18.117V45.23c0,1.652,1.339,2.992,2.992,2.992
			c1.653,0,2.992-1.34,2.992-2.992V27.113h18.117c1.653,0,2.992-1.34,2.992-2.992C133.67,22.469,132.331,21.13,130.678,21.13z"/>
		<g>
			<path fill="#ffffff" d="M36.184,84.352v-1.621c0-0.331,0.088-0.679,0.263-1.045c0.174-0.366,0.437-0.697,0.787-0.993l12.295-12.426
				c1.019-1.036,1.954-2.037,2.806-3.003c0.851-0.966,1.572-1.936,2.16-2.91c0.588-0.975,1.045-1.962,1.37-2.963
				c0.324-1.001,0.487-2.063,0.487-3.187c0-1.141-0.18-2.138-0.54-2.99c-0.359-0.852-0.847-1.554-1.462-2.107
				c-0.615-0.553-1.348-0.97-2.2-1.251c-0.851-0.281-1.76-0.422-2.726-0.422c-0.984,0-1.892,0.145-2.727,0.435
				c-0.834,0.29-1.568,0.689-2.199,1.198c-0.633,0.509-1.164,1.115-1.594,1.818c-0.43,0.702-0.742,1.475-0.935,2.317
				c-0.207,0.633-0.492,1.049-0.854,1.251s-0.871,0.26-1.526,0.171l-2.458-0.422c0.244-1.75,0.727-3.304,1.451-4.661
				c0.725-1.357,1.636-2.494,2.735-3.414c1.099-0.919,2.354-1.615,3.766-2.087c1.413-0.472,2.939-0.709,4.578-0.709
				c1.618,0,3.13,0.245,4.539,0.735c1.408,0.49,2.63,1.195,3.665,2.114c1.034,0.919,1.847,2.044,2.439,3.374
				c0.591,1.33,0.887,2.836,0.887,4.517c0,1.439-0.218,2.774-0.654,4.003c-0.436,1.229-1.021,2.401-1.754,3.516
				c-0.733,1.115-1.576,2.203-2.526,3.265c-0.951,1.062-1.967,2.129-3.049,3.2L43.074,80.483c0.719-0.191,1.446-0.348,2.182-0.47
				c0.736-0.122,1.446-0.183,2.13-0.183h12.937c0.526,0,0.938,0.153,1.236,0.458c0.298,0.305,0.447,0.692,0.447,1.163v2.902H36.184z
				"/>
			<path fill="#ffffff" d="M68.052,80.723l1.472-2.051c0.316-0.473,0.736-0.71,1.262-0.71c0.351,0,0.754,0.141,1.21,0.421
				c0.456,0.28,1.008,0.592,1.657,0.933c0.649,0.342,1.406,0.653,2.275,0.933c0.867,0.28,1.897,0.421,3.089,0.421
				c1.35,0,2.563-0.214,3.642-0.644c1.077-0.429,2.002-1.047,2.774-1.854c0.771-0.806,1.362-1.766,1.774-2.879
				c0.412-1.113,0.618-2.353,0.618-3.721c0-1.21-0.175-2.301-0.526-3.274c-0.35-0.973-0.88-1.797-1.589-2.472
				c-0.709-0.674-1.589-1.2-2.639-1.578c-1.052-0.377-2.286-0.565-3.705-0.565c-0.963,0-1.97,0.079-3.021,0.237
				c-1.051,0.158-2.128,0.412-3.231,0.763l-2.995-0.865l3.06-18.041H91.48v2.052c0,0.676-0.214,1.235-0.643,1.676
				c-0.428,0.442-1.15,0.662-2.165,0.662H76.579l-1.772,10.18c1.016-0.192,1.974-0.334,2.876-0.423
				c0.901-0.089,1.79-0.133,2.665-0.133c2.013,0,3.785,0.296,5.317,0.886c1.532,0.591,2.814,1.398,3.847,2.423
				c1.033,1.025,1.816,2.241,2.35,3.648c0.535,1.407,0.801,2.936,0.801,4.586c0,2.051-0.355,3.905-1.064,5.561
				c-0.711,1.657-1.693,3.073-2.945,4.246c-1.254,1.174-2.722,2.073-4.405,2.695c-1.683,0.622-3.506,0.933-5.469,0.933
				c-1.139,0-2.226-0.11-3.26-0.329s-2.003-0.517-2.905-0.894c-0.904-0.377-1.745-0.811-2.524-1.302
				C69.309,81.758,68.63,81.249,68.052,80.723z"/>
		</g>
		<g>
			<path fill="#ffffff" d="M120.549,45.045c2.264,6.252,3.523,12.98,3.523,20.004c0,32.557-26.488,59.044-59.045,59.044S5.983,97.606,5.983,65.049
				S32.47,6.005,65.027,6.005c8.982,0,17.494,2.029,25.122,5.636l4.467-4.467C85.734,2.612,75.68,0.022,65.027,0.022
				C29.171,0.022,0,29.193,0,65.049s29.171,65.028,65.027,65.028s65.028-29.171,65.028-65.028c0-8.72-1.741-17.036-4.871-24.639
				L120.549,45.045z"/>
		</g>
</svg>