<svg version="1.1" xmlns="http://www.w3.org/2000/svg" xmlns:xlink="http://www.w3.org/1999/xlink" x="0px" y="0px" width="129.627px"
     height="129.522px" viewBox="0 0 129.627 129.522" enable-background="new 0 0 129.627 129.522" xml:space="preserve">

    <path fill="#ffffff" d="M129.627,86.348c0-2.256-1.678-3.832-4.08-3.832c-1.355,0-3.675,0.696-5.672,1.846
			c-2.639-5.569-6.956-10.507-10.049-12.046c-2.045-1.02-9.013-2.159-15.278-2.159s-13.233,1.139-15.284,2.159
			c-3.082,1.538-7.399,6.476-10.043,12.046c-2.002-1.15-4.323-1.846-5.677-1.846c-1.025,0-1.905,0.264-2.612,0.799
			c-0.939,0.707-1.463,1.786-1.463,3.033c0,4.209,3.265,7.129,3.643,7.447c0.291,0.248,0.626,0.405,0.971,0.513
			c-1.29,3.578-1.916,7.55-1.916,10.928c0,4.031,0.372,10.907,2.698,14.42v4.468c0,3.028,2.369,5.397,5.397,5.397h5.397
			c3.028,0,5.397-2.369,5.397-5.397v-1.829c3.26,0.815,8.343,1.829,13.492,1.829c5.148,0,10.232-1.015,13.492-1.829v1.829
			c0,3.028,2.369,5.397,5.397,5.397h5.397c3.028,0,5.397-2.369,5.397-5.397v-4.468c2.326-3.513,2.698-10.389,2.698-14.42
			c0-3.378-0.626-7.35-1.916-10.928c0.345-0.103,0.68-0.259,0.971-0.513C126.362,93.477,129.627,90.557,129.627,86.348z
			 M81.666,77.152c1.009-0.464,6.768-1.597,12.882-1.597s11.873,1.133,12.866,1.587c2.045,1.025,6.794,6.406,8.683,12.272
			c-5.073,0.712-17.064,2.331-21.549,2.331s-16.482-1.619-21.555-2.331C74.882,83.547,79.631,78.166,81.666,77.152z M66.426,89.505
			c-0.173-0.173-0.437-0.453-0.75-0.912c0.356,0.167,0.696,0.356,1.015,0.545C66.604,89.262,66.512,89.375,66.426,89.505z
			 M75.659,124.125h-5.397v-2.698h5.397V124.125z M118.833,124.125h-5.397v-2.698h5.397V124.125z M120.075,116.03h-9.336
			c-0.286,0-0.572,0.049-0.853,0.135c-0.076,0.027-7.804,2.563-15.338,2.563c-7.534,0-15.262-2.536-15.338-2.558
			c-0.092-0.027-0.183-0.005-0.275-0.022c-0.189-0.043-0.372-0.119-0.577-0.119h-9.347c-0.707-1.614-1.452-5.332-1.452-10.788
			c0-0.858,0.065-1.77,0.162-2.693c3.627,0.103,7.939,1.328,7.939,2.688c0,1.489,1.209,2.698,2.698,2.698
			c1.489,0,2.698-1.209,2.698-2.698c0-6.595-8.905-7.809-12.278-8.036c0.302-0.988,0.664-1.916,1.074-2.79
			c0.005,0,0.011,0.005,0.016,0.005c0.756,0.113,18.57,2.725,24.679,2.725s23.924-2.612,24.679-2.725
			c0.005,0,0.005-0.005,0.011-0.005c0.41,0.874,0.772,1.803,1.074,2.79c-3.373,0.227-12.272,1.446-12.272,8.036
			c0,1.489,1.209,2.698,2.698,2.698s2.698-1.209,2.698-2.698c0-1.387,4.285-2.574,7.933-2.688c0.097,0.923,0.162,1.835,0.162,2.688
			C121.532,110.698,120.781,114.416,120.075,116.03z M122.665,89.499c-0.086-0.124-0.173-0.243-0.264-0.362
			c0.318-0.189,0.664-0.383,1.015-0.55C123.151,88.987,122.881,89.284,122.665,89.499z M116.135,0H13.597
			C6.155,0,0.105,6.05,0.105,13.492v70.158c0,7.442,6.05,13.492,13.492,13.492h39.925c1.495,0,2.698-1.209,2.698-2.698
			s-1.209-2.698-2.698-2.698H13.597c-4.463,0-8.095-3.632-8.095-8.095V21.587H124.23v52.942c0,1.49,1.209,2.698,2.698,2.698
			c1.49,0,2.698-1.209,2.698-2.698V13.492C129.627,6.05,123.577,0,116.135,0z M124.23,16.19H5.502v-2.698
			c0-4.463,3.632-8.095,8.095-8.095h102.538c4.463,0,8.095,3.632,8.095,8.095V16.19z M49.798,55.29
			c-0.232,2.909-1.727,5.926-3.896,7.874c-0.739,0.664-1.058,1.689-0.815,2.661l1.101,4.409c0.243,0.966,0.993,1.722,1.964,1.964
			l9.666,2.412c1.333,0.329,2.574,0.971,3.691,1.91c1.144,0.955,2.844,0.81,3.805-0.34c0.95-1.144,0.799-2.844-0.34-3.805
			c-1.749-1.463-3.713-2.472-5.845-3.011l-8.101-2.018l-0.34-1.36c2.099-2.321,3.594-5.283,4.209-8.36
			c1.441-0.745,2.493-2.164,2.704-3.864l0.583-4.684c0.178-1.419-0.259-2.86-1.203-3.934c-0.291-0.335-0.626-0.626-0.988-0.869
			l0.14-2.866l0.491-0.496c1.392-1.473,3.276-4.636,0.297-9.185c-1.414-2.159-4.323-4.744-10.167-4.744
			c-1.722,0-5.602,0-9.369,2.369c-11.106,0.389-12.412,6.374-12.412,10.891c0,0.89,0.162,2.558,0.313,3.95
			c-0.399,0.254-0.761,0.567-1.085,0.928c-0.961,1.085-1.403,2.531-1.22,3.956l0.583,4.695c0.221,1.759,1.338,3.216,2.984,3.934
			c0.604,2.947,2.018,5.791,3.988,8.057l-0.394,1.587l-8.1,2.018c-6.557,1.641-11.144,7.512-11.144,14.28
			c0,1.489,1.209,2.698,2.698,2.698h38.085c1.489,0,2.698-1.209,2.698-2.698c0-1.49-1.209-2.698-2.698-2.698L16.7,80.946
			c0.923-3.082,3.411-5.532,6.66-6.341l9.671-2.412c0.966-0.243,1.722-0.993,1.964-1.964l1.15-4.603
			c0.237-0.944-0.059-1.948-0.777-2.617c-2.099-1.981-3.486-4.868-3.718-7.728c-0.113-1.403-1.311-2.175-2.72-2.175l-0.696-4.301
			c0.777,0,1.511-0.335,2.024-0.912c0.513-0.588,0.75-1.355,0.653-2.126c-0.205-1.63-0.534-4.571-0.534-5.526
			c0-2.79,0-5.429,7.89-5.51c0.55-0.005,1.09-0.178,1.543-0.507c2.569-1.84,5.526-1.84,6.946-1.84c4.145,0,5.273,1.727,5.667,2.304
			c1.096,1.684,0.648,2.159,0.345,2.482l-1.171,1.171c-0.475,0.475-0.756,1.106-0.788,1.776l-0.291,5.877
			c-0.032,0.734,0.054,1.241,0.561,1.781c0.502,0.534,1.025,0.637,1.759,0.648l-0.351,4.382
			C51.077,52.802,49.912,53.881,49.798,55.29z M116.135,43.174c1.489,0,2.698-1.209,2.698-2.698s-1.209-2.698-2.698-2.698h-10.793
			c-1.489,0-2.698,1.209-2.698,2.698s1.209,2.698,2.698,2.698H116.135z M78.358,59.364h37.777c1.489,0,2.698-1.209,2.698-2.698
			s-1.209-2.698-2.698-2.698H78.358c-1.49,0-2.698,1.209-2.698,2.698S76.868,59.364,78.358,59.364z M78.358,43.174h16.19
			c1.489,0,2.698-1.209,2.698-2.698s-1.209-2.698-2.698-2.698h-16.19c-1.49,0-2.698,1.209-2.698,2.698S76.868,43.174,78.358,43.174z
			 M99.945,102.538H89.151c-1.489,0-2.698,1.209-2.698,2.698s1.209,2.698,2.698,2.698h10.793c1.489,0,2.698-1.209,2.698-2.698
			S101.434,102.538,99.945,102.538z"/>
</svg>