<svg version="1.1" id="Слой_2" xmlns="http://www.w3.org/2000/svg" xmlns:xlink="http://www.w3.org/1999/xlink" x="0px" y="0px"
	 width="403.638px" height="432.546px" viewBox="0 0 403.638 432.546" enable-background="new 0 0 403.638 432.546"
	 xml:space="preserve">
   <path fill="#FFFFFF" d="M216.273,413.814V313.79h39.38l78.896-127.314V313.79h36.848V118.757h-39.244l-79.024,129.846V118.757
       h-36.856V18.741c72.975,0,136.696,39.572,170.9,98.43l16.233-9.366C365.957,43.346,296.179,0,216.273,0
       C96.827,0,0,96.828,0,216.273s96.827,216.273,216.273,216.273c80.074,0,149.98-43.522,187.365-108.197l-16.225-9.366
       C353.273,374.057,289.416,413.814,216.273,413.814 M179.489,313.685V186.476l-78.96,127.209H60.965V118.869h36.784v129.733
       l79.281-129.733h39.244v194.816H179.489z"/>
</svg>
