<svg version="1.1" xmlns="http://www.w3.org/2000/svg" xmlns:xlink="http://www.w3.org/1999/xlink" x="0px" y="0px"
	 width="383.953px" height="511.936px" viewBox="-0.001 0 383.953 511.936" enable-background="new -0.001 0 383.953 511.936"
	 xml:space="preserve">

		<path fill="#ff6600" d="M383.952,178.978c0,8.666,0,17.331,0,25.997c-1.209,7.676-2.212,15.391-3.664,23.021
			c-6.555,34.465-19.789,66.502-36.09,97.336c-32.48,61.442-74.11,116.336-120.572,167.755
			c-7.299,8.078-14.754,15.756-25.652,18.849c-3.999,0-7.999,0-11.999,0c-7.754-2.432-14.364-6.615-19.891-12.613
			c-49.02-53.19-92.667-110.295-126.592-174.415c-15.601-29.487-28.309-60.151-35.067-92.988c-1.833-8.908-2.97-17.96-4.426-26.946
			c0-8.666,0-17.331,0-25.997c0.976-6.707,1.846-13.431,2.944-20.117C14.977,85.571,72.351,23.546,144.689,6.023
			C155.944,3.296,167.54,1.973,178.978,0c8.666,0,17.331,0,25.997,0c6.722,0.979,13.461,1.857,20.165,2.952
			c74.366,12.146,137.197,71.398,153.652,145.143C381.061,158.266,382.258,168.677,383.952,178.978z M192.185,63.996
			c-70.561-0.104-127.953,56.981-128.189,127.503c-0.237,70.752,57.029,128.333,127.752,128.456
			c70.512,0.122,127.959-57.017,128.207-127.52C320.204,121.708,262.897,64.101,192.185,63.996z"/>
		<path fill="#ff6600" d="M255.963,191.851c0.043,35.243-28.573,64.02-63.754,64.112c-35.479,0.092-64.273-28.659-64.222-64.128
			c0.05-35.236,28.725-63.847,63.988-63.848C227.219,127.987,255.92,156.633,255.963,191.851z"/>

</svg>
