<svg version="1.1" id="Слой_1" xmlns="http://www.w3.org/2000/svg" xmlns:xlink="http://www.w3.org/1999/xlink" x="0px" y="0px"
	 width="44.012px" height="42.41px" viewBox="0 0 44.012 42.41" enable-background="new 0 0 44.012 42.41" xml:space="preserve">

<g>
	<path fill="#EC671C" d="M41.352,17.61h-8.719c-0.445,0-0.801,0.355-0.801,0.8c0,0.442,0.356,0.797,0.801,0.797h7.281l2.316,21.602
		H1.812l2.723-21.602h7.297c0.441,0,0.801-0.355,0.801-0.797c0-0.445-0.36-0.8-0.801-0.8H3.125L0,42.41h44.012L41.352,17.61z"/>
	<path fill="#EC671C" d="M21.324,30.371c-0.117,0.071-0.246,0.133-0.355,0.207c-0.176,0.114-0.348,0.231-0.52,0.356
		c-0.355,0.262-0.429,0.762-0.172,1.117c0.157,0.215,0.403,0.328,0.649,0.328c0.164,0,0.328-0.051,0.472-0.156
		c0.141-0.106,0.286-0.203,0.438-0.301c0.258-0.168,0.531-0.324,0.812-0.465c0.375-0.191,0.524-0.633,0.368-1.015
		c0.007-0.008,0.015-0.012,0.019-0.02c1.449-1.531,6.324-7.277,8.344-16.848c0.41-1.937,0.504-3.8,0.273-5.535
		C30.965,2.781,27.699,0,22.203,0c-5.492,0-8.762,2.781-9.449,8.039c-0.227,1.735-0.137,3.598,0.273,5.535
		C15.027,23.055,19.828,28.774,21.324,30.371z M14.34,8.25c0.586-4.472,3.16-6.648,7.863-6.648c4.707,0,7.277,2.176,7.863,6.648
		c0.207,1.551,0.122,3.235-0.25,4.996C28,21.848,23.672,27.309,22.203,28.965c-1.469-1.66-5.797-7.121-7.609-15.719
		C14.223,11.485,14.137,9.801,14.34,8.25z"/>
	<path fill="#EC671C" d="M22.203,15.137c3.242,0,5.879-2.633,5.879-5.875s-2.637-5.875-5.879-5.875
		c-3.238,0-5.875,2.633-5.875,5.875S18.965,15.137,22.203,15.137z M22.203,4.985c2.359,0,4.277,1.918,4.277,4.277
		s-1.918,4.277-4.277,4.277s-4.277-1.918-4.277-4.277S19.848,4.985,22.203,4.985z"/>
	<path fill="#EC671C" d="M25.141,28.934c-0.43,0.094-0.707,0.519-0.614,0.949c0.078,0.379,0.411,0.633,0.782,0.633
		c0.054,0,0.113-0.004,0.168-0.016c0.468-0.101,0.976-0.183,1.507-0.25c0.442-0.054,0.75-0.453,0.696-0.894
		c-0.055-0.438-0.45-0.754-0.891-0.696C26.211,28.735,25.656,28.824,25.141,28.934z"/>
	<path fill="#EC671C" d="M29.277,29.258c0.02,0.43,0.375,0.766,0.801,0.766c0.012,0,0.024,0,0.035,0l1.602-0.067
		c0.441-0.019,0.781-0.394,0.762-0.836c-0.02-0.441-0.434-0.785-0.836-0.761l-1.598,0.066
		C29.602,28.446,29.262,28.817,29.277,29.258z"/>
	<path fill="#EC671C" d="M17.945,32.942c-0.41,0.308-0.836,0.605-1.261,0.882c-0.372,0.243-0.477,0.739-0.239,1.11
		c0.157,0.234,0.414,0.363,0.676,0.363c0.149,0,0.297-0.043,0.434-0.129c0.457-0.297,0.914-0.617,1.355-0.949
		c0.352-0.266,0.422-0.77,0.156-1.121C18.801,32.746,18.301,32.672,17.945,32.942z"/>
	<path fill="#EC671C" d="M35.777,27.664c-0.273,0.192-0.621,0.328-1.078,0.422c-0.433,0.09-0.711,0.512-0.621,0.945
		c0.078,0.379,0.41,0.637,0.781,0.637c0.055,0,0.11-0.004,0.164-0.015c0.672-0.141,1.219-0.36,1.676-0.684l0.11-0.078
		c0.351-0.266,0.421-0.766,0.152-1.121c-0.266-0.352-0.766-0.418-1.121-0.153L35.777,27.664z"/>
	<path fill="#EC671C" d="M7.09,33.922c0.113-0.43-0.137-0.867-0.567-0.984c-0.421-0.117-0.863,0.136-0.98,0.566
		c-0.102,0.371-0.16,0.75-0.18,1.121c-0.004,0.094-0.004,0.188-0.004,0.285c0,0.157,0.008,0.313,0.02,0.469
		c0.043,0.41,0.391,0.719,0.797,0.719c0.027,0,0.054-0.004,0.082-0.004c0.441-0.047,0.762-0.438,0.715-0.879
		c-0.012-0.105-0.016-0.211-0.016-0.312c0-0.067,0.004-0.133,0.008-0.2C6.977,34.446,7.02,34.18,7.09,33.922z"/>
	<path fill="#EC671C" d="M35.758,21.446c-0.633-0.083-1.281-0.032-1.91,0.144c-0.422,0.121-0.672,0.563-0.551,0.988
		c0.101,0.352,0.422,0.582,0.769,0.582c0.075,0,0.145-0.007,0.219-0.031c0.414-0.117,0.844-0.152,1.258-0.098
		c0.449,0.059,0.844-0.246,0.902-0.683C36.504,21.906,36.195,21.504,35.758,21.446z"/>
	<path fill="#EC671C" d="M37.352,25.41c-0.133,0.422,0.105,0.871,0.527,1c0.078,0.024,0.156,0.036,0.234,0.036
		c0.344,0,0.66-0.219,0.766-0.563c0.078-0.254,0.129-0.516,0.144-0.773c0.004-0.067,0.008-0.133,0.008-0.2
		c0-0.375-0.07-0.75-0.203-1.113c-0.156-0.414-0.617-0.625-1.027-0.473c-0.418,0.157-0.629,0.618-0.473,1.032
		c0.067,0.183,0.102,0.371,0.102,0.554v0.094C37.418,25.137,37.395,25.27,37.352,25.41z"/>
	<path fill="#EC671C" d="M13.984,35.328c-0.468,0.223-0.945,0.426-1.418,0.61c-0.414,0.156-0.617,0.621-0.457,1.035
		c0.121,0.316,0.422,0.512,0.746,0.512c0.094,0,0.192-0.02,0.286-0.055c0.511-0.195,1.023-0.414,1.523-0.652
		c0.402-0.184,0.574-0.665,0.383-1.063C14.863,35.313,14.387,35.141,13.984,35.328z"/>
	<path fill="#EC671C" d="M8.16,32c0.129,0,0.262-0.031,0.383-0.097c0.23-0.125,0.477-0.204,0.73-0.231
		c0.106-0.016,0.219-0.016,0.325,0c0.449,0.059,0.84-0.25,0.898-0.687c0.055-0.438-0.254-0.84-0.691-0.899
		c-0.239-0.031-0.481-0.031-0.711-0.008c-0.461,0.051-0.903,0.192-1.317,0.418c-0.386,0.211-0.531,0.7-0.32,1.086
		C7.602,31.848,7.879,32,8.16,32z"/>
	<path fill="#EC671C" d="M7.996,38.274c0.172,0.043,0.348,0.078,0.524,0.097c0.203,0.024,0.406,0.039,0.613,0.039
		c0.25,0,0.5-0.019,0.754-0.05c0.437-0.055,0.746-0.457,0.691-0.895c-0.055-0.437-0.453-0.746-0.894-0.691
		c-0.321,0.039-0.649,0.05-0.973,0.011C8.605,36.77,8.5,36.75,8.398,36.723c-0.429-0.113-0.867,0.144-0.976,0.574
		C7.312,37.727,7.566,38.16,7.996,38.274z"/>
</g>
</svg>
