<svg version="1.1"
	 xmlns="http://www.w3.org/2000/svg" xmlns:xlink="http://www.w3.org/1999/xlink" x="0px" y="0px" width="131.978px"
	 height="130.105px" viewBox="0 0 131.978 130.105" enable-background="new 0 0 131.978 130.105" xml:space="preserve">

    <g>
        <path fill="#ffffff" d="M59.025,35.523c0-13.02-10.594-23.616-23.616-23.616S11.792,22.5,11.792,35.523s10.594,23.616,23.616,23.616
				S59.025,48.543,59.025,35.523z M35.408,53.233c-9.767,0-17.713-7.946-17.713-17.71s7.946-17.71,17.713-17.71
				s17.713,7.946,17.713,17.71S45.176,53.233,35.408,53.233z"/>
    </g>
    <g>
        <path fill="#ffffff" d="M4.478,130.395c-0.768,0-1.535-0.293-2.121-0.879c-1.172-1.171-1.172-3.071,0-4.242l124.5-124.5
				c1.172-1.172,3.07-1.172,4.242,0c1.172,1.171,1.172,3.071,0,4.242l-124.5,124.5C6.013,130.102,5.246,130.395,4.478,130.395z"/>
    </g>
    <g>
        <path fill="#ffffff" d="M4.478,130.395c-0.768,0-1.535-0.293-2.121-0.879c-1.172-1.171-1.172-3.071,0-4.242l124.5-124.5
				c1.172-1.172,3.07-1.172,4.242,0c1.172,1.171,1.172,3.071,0,4.242l-124.5,124.5C6.013,130.102,5.246,130.395,4.478,130.395z"/>
    </g>
    <g>
        <path fill="none" d="M91.039,23.908c-12.943,1.446-23.767,11.795-25.744,24.611c-0.355,2.301-0.442,4.581-0.29,6.811l6.19-6.19
				c1.712-9.745,9.413-17.446,19.158-19.158l6.189-6.189c-0.68-0.046-1.364-0.077-2.052-0.077
				C93.347,23.716,92.196,23.781,91.039,23.908z"/>
        <path fill="none" d="M118.064,53.233c0,13.023-10.594,23.619-23.616,23.619c-7.598,0-14.365-3.61-18.687-9.201l-4.209,4.209
				c1.962,2.388,4.316,4.508,7.052,6.252c2.524,1.609,4.035,4.377,4.035,7.406v3.138c0,1.626,1.322,2.952,2.952,2.952h17.713
				c1.629,0,2.952-1.325,2.952-2.952v-3.135c0-3.034,1.496-5.794,4-7.388c8.586-5.455,13.713-14.764,13.713-24.9
				c0-8.389-3.589-16.411-9.847-22.005c-0.343-0.307-0.691-0.604-1.044-0.893l-4.213,4.213
				C114.454,38.87,118.064,45.635,118.064,53.233z"/>
        <path fill="none" d="M53.118,118.175c-1.629,0-2.952,1.325-2.952,2.952c0,1.626,1.322,2.952,2.952,2.952s2.952-1.325,2.952-2.952
				C56.07,119.501,54.748,118.175,53.118,118.175z"/>
        <path fill="none" d="M85.59,112.272c-1.629,0-2.952,1.325-2.952,2.952c0,1.626,1.322,2.952,2.952,2.952s2.952-1.325,2.952-2.952
				C88.541,113.597,87.219,112.272,85.59,112.272z"/>
        <path fill="#ffffff" d="M114.121,31.228c6.258,5.593,9.847,13.616,9.847,22.005c0,10.136-5.127,19.446-13.713,24.9c-2.503,1.594-4,4.354-4,7.388
				v3.135c0,1.626-1.322,2.952-2.952,2.952H85.59c-1.629,0-2.952-1.325-2.952-2.952v-3.138c0-3.028-1.511-5.797-4.035-7.406
				c-2.736-1.744-5.09-3.865-7.052-6.252l-4.165,4.165c2.275,2.708,4.966,5.105,8.043,7.067c0.818,0.519,1.305,1.426,1.305,2.426
				v3.138c0,4.882,3.973,8.855,8.855,8.855h2.952c0,1.381,0.965,2.485,2.246,2.81c-0.517,2.308-1.305,4.507-2.382,6.547
				c-0.891-0.301-1.827-0.502-2.816-0.502c-4.882,0-8.855,3.973-8.855,8.855c0,0.992,0.201,1.927,0.502,2.816
				c-3.687,1.945-7.857,3.09-12.308,3.09c-1.007,0-1.995-0.065-2.969-0.18c-0.1-4.799-4.017-8.675-8.84-8.675
				c-2.199,0-4.188,0.835-5.741,2.169c-2.987-2.639-5.366-5.936-6.928-9.664c1.815-1.265,3.127-3.19,3.605-5.421l-8.631,8.631
				c2.076,4.55,5.162,8.534,8.987,11.669c-0.083,0.481-0.148,0.968-0.148,1.473c0,4.882,3.973,8.855,8.855,8.855
				c2.807,0,5.281-1.337,6.907-3.38c1.603,0.254,3.229,0.425,4.903,0.425c5.835,0,11.293-1.585,16.025-4.298
				c1.352,0.838,2.934,1.346,4.637,1.346c4.882,0,8.855-3.973,8.855-8.855c0-1.706-0.508-3.285-1.346-4.637
				c1.774-3.096,3.058-6.5,3.734-10.121h0.564c1.632,0,2.952-1.322,2.952-2.952h2.952c4.882,0,8.855-3.973,8.855-8.855v-3.135
				c0-0.986,0.484-1.91,1.263-2.406c10.304-6.55,16.453-17.719,16.453-29.886c0-10.068-4.307-19.694-11.816-26.409
				c-0.259-0.232-0.529-0.45-0.794-0.673l-4.184,4.184C113.43,30.624,113.778,30.921,114.121,31.228z M53.118,124.079
				c-1.629,0-2.952-1.325-2.952-2.952c0-1.626,1.322-2.952,2.952-2.952s2.952,1.325,2.952,2.952
				C56.07,122.753,54.748,124.079,53.118,124.079z M85.59,118.175c-1.629,0-2.952-1.325-2.952-2.952
				c0-1.626,1.322-2.952,2.952-2.952s2.952,1.325,2.952,2.952C88.541,116.85,87.219,118.175,85.59,118.175z"/>
        <path fill="#ffffff" d="M65.294,48.519c1.978-12.816,12.801-23.165,25.744-24.611c1.157-0.127,2.308-0.192,3.451-0.192
				c0.688,0,1.372,0.031,2.052,0.077l5.202-5.202c-3.694-0.778-7.529-0.979-11.363-0.551C74.84,19.776,61.835,32.217,59.459,47.619
				c-0.675,4.37-0.527,8.734,0.357,12.9l5.188-5.188C64.852,53.1,64.939,50.82,65.294,48.519z"/>
        <path fill="#ffffff" d="M53.118,64.425c0-1.629-1.319-2.952-2.952-2.952s-2.952,1.322-2.952,2.952v6.526c0,1.626-1.322,2.952-2.952,2.952H26.55
				c-1.629,0-2.952-1.325-2.952-2.952v-3.138c0-3.028-1.511-5.797-4.035-7.406C9.519,54.006,4.422,42.663,6.255,30.806
				C8.179,18.359,18.215,8.314,30.653,6.381c12.775-1.992,25.234,4.342,31.057,15.729c0.744,1.452,2.527,2.034,3.973,1.284
				c1.452-0.741,2.028-2.521,1.287-3.97C59.984,5.758,45.001-1.825,29.75,0.545C14.797,2.868,2.736,14.941,0.419,29.903
				c-2.161,13.991,4.106,27.92,15.971,35.485c0.818,0.52,1.305,1.426,1.305,2.426v3.138c0,4.882,3.973,8.855,8.855,8.855h2.952
				c0,1.629,1.319,2.952,2.952,2.952v5.122l20.665-20.665V64.425z"/>
        <path fill="#ffffff" d="M71.194,49.14l19.158-19.158C80.607,31.694,72.906,39.395,71.194,49.14z"/>
        <path fill="#ffffff" d="M112.161,53.236c0,9.764-7.946,17.71-17.713,17.71c-5.972,0-11.252-2.979-14.462-7.52l-4.225,4.225
				c4.323,5.591,11.089,9.201,18.687,9.201c13.023,0,23.616-10.596,23.616-23.619c0-7.598-3.61-14.363-9.201-18.684l-4.226,4.226
				C109.18,41.984,112.161,47.264,112.161,53.236z"/>
    </g>
</svg>