<svg version="1.1"
	 xmlns="http://www.w3.org/2000/svg" xmlns:xlink="http://www.w3.org/1999/xlink" x="0px" y="0px" width="102.75px"
	 height="130.105px" viewBox="0 0 102.75 130.105" enable-background="new 0 0 102.75 130.105" xml:space="preserve">


    <path fill="#ffffff" d="M87.497,0H15.253C6.843,0,0,6.811,0,15.182v99.741c0,8.372,6.843,15.182,15.253,15.182h72.244
        c8.41,0,15.253-6.811,15.253-15.182V15.182C102.75,6.811,95.907,0,87.497,0z M96.75,114.923c0,5.063-4.15,9.182-9.253,9.182
        H15.253c-5.103,0-9.253-4.119-9.253-9.182V15.182C6,10.119,10.151,6,15.253,6h72.244c5.103,0,9.253,4.119,9.253,9.182V114.923z"
        />
    <path fill="#ffffff" d="M82.792,99.667H19.958c-1.657,0-3,1.343-3,3s1.343,3,3,3h62.833c1.657,0,3-1.343,3-3S84.449,99.667,82.792,99.667z"/>
    <path fill="#ffffff" d="M26.72,60.484h5.653c2.124,0,3.997-0.27,5.618-0.81c1.62-0.54,2.986-1.298,4.096-2.275
        c1.11-0.977,1.949-2.144,2.516-3.502c0.567-1.357,0.851-2.847,0.851-4.467c0-1.643-0.264-3.134-0.79-4.474
        c-0.527-1.34-1.329-2.484-2.407-3.434c-1.078-0.949-2.438-1.678-4.083-2.189c-1.646-0.51-3.577-0.766-5.797-0.766H21.982v35.099
        h4.738V60.484z M26.72,42.3h5.646c2.807,0,4.9,0.63,6.28,1.89c1.38,1.26,2.069,3.007,2.069,5.24c0,1.085-0.18,2.074-0.538,2.967
        c-0.359,0.894-0.894,1.663-1.604,2.309c-0.709,0.646-1.583,1.148-2.619,1.507c-1.037,0.359-2.233,0.539-3.589,0.539H26.72V42.3z"
        />
    <path fill="#ffffff" d="M52.954,65.141c1.316,1.283,2.898,2.307,4.749,3.072c1.851,0.765,3.9,1.171,6.149,1.219v4.235h4.402v-4.235
        c2.236-0.048,4.281-0.454,6.135-1.219c1.853-0.765,3.438-1.789,4.757-3.072c1.317-1.283,2.34-2.773,3.067-4.47
        c0.727-1.697,1.09-3.51,1.09-5.438c0-1.922-0.363-3.732-1.09-5.43c-0.728-1.698-1.75-3.188-3.067-4.469
        c-1.318-1.282-2.904-2.303-4.757-3.064c-1.854-0.761-3.898-1.165-6.135-1.213v-4.091h-4.402v4.091
        c-2.233,0.048-4.271,0.453-6.113,1.213c-1.842,0.761-3.426,1.782-4.749,3.064c-1.324,1.281-2.354,2.771-3.087,4.469
        c-0.733,1.698-1.101,3.508-1.101,5.43c0,1.928,0.363,3.741,1.089,5.438S51.639,63.858,52.954,65.141z M68.255,44.789
        c1.534,0.032,2.938,0.323,4.208,0.875c1.271,0.551,2.362,1.301,3.273,2.251c0.912,0.95,1.611,2.052,2.099,3.306
        s0.731,2.591,0.731,4.012c0,1.437-0.244,2.787-0.731,4.048c-0.487,1.262-1.187,2.367-2.099,3.318
        c-0.911,0.95-2.002,1.7-3.273,2.251c-1.271,0.551-2.674,0.834-4.208,0.85V44.789z M54.271,51.208
        c0.487-1.261,1.184-2.363,2.087-3.305c0.902-0.942,1.99-1.689,3.262-2.24c1.271-0.551,2.682-0.842,4.232-0.875V65.7
        c-1.567-0.016-2.982-0.299-4.245-0.85c-1.263-0.551-2.347-1.301-3.249-2.251c-0.903-0.951-1.6-2.056-2.087-3.318
        c-0.487-1.261-0.731-2.611-0.731-4.048C53.54,53.811,53.784,52.47,54.271,51.208z"/>

</svg>