
<svg version="1.1" id="Слой_1" xmlns="http://www.w3.org/2000/svg" xmlns:xlink="http://www.w3.org/1999/xlink" x="0px" y="0px"
	 width="266.161px" height="236.582px" viewBox="0 0 266.161 236.582" enable-background="new 0 0 266.161 236.582"
	 xml:space="preserve">

<path fill="#ffffff" d="M256.269,197.941c-0.044-11.338-8-11.611-17.5-15.408l-44.36-17.763c-0.765-0.303-1.53-0.636-2.281-0.969v-0.015
	c-7.885-3.564-14.846-8.532-17.4-12.025l-0.104-0.118l-0.03-0.055c-0.144-0.218-0.303-0.447-0.432-0.68l-0.1-0.174l-0.03-0.055
	l-0.085-0.104v-0.015c-1.187-1.774-2.384-2.569-3.379-2.222l-0.074,0.03h-0.03v0.011l-0.055,0.015l-0.044,0.015l-0.059,0.044
	c-1.198,0.636-0.954-0.059-1.442-1.372c-1.201-3.249-3.179-9.415-3.482-10.325c-0.462-1.689-1.704,2.673-1.416-2.037l0.506-8.521
	c0.81-0.88,1.475-1.586,1.922-2.078c2.887-3.308,3.09-12.044,4.532-14.166c1.46-2.137,4.362-2.599,7.249-12.506
	c2.902-9.918,6.44-24.088,2.717-24.317c-0.924-0.059-1.966,0.536-3.035,1.486c0.651-3.652,2.037-11.911,2.355-18.006
	c0.403-8.029-0.924-28.62-5.486-36.157c-2.861-4.721-8.621-9.386-14.354-13.038c-3.438-2.196-6.876-4-9.674-5.227
	c-8.362-3.711-34.73-2.007-43.654,0c-10.166,2.266-17.301,8.647-21.847,16.199c-4.551,7.552-6.569,30.194-6.166,38.224
	c0.189,3.612,2.34,9.689,2.887,13.4c0.318,1.937,0.606,1.952,0.839,3.323c-0.377-0.144-0.736-0.218-1.083-0.189
	c-3.726,0.214-0.203,14.384,2.684,24.302c2.902,9.907,5.793,10.369,7.249,12.506c1.445,2.122,1.649,10.857,4.565,14.166
	c0.447,0.521,1.153,1.286,2.018,2.211l0.551,6.946l0.983,3.852c-0.451-1.109-1.331-1.819-1.748-0.373
	c-1.242,3.796-2.499,7.582-3.741,11.378c-0.13-0.189-0.333-0.303-0.577-0.318c-1.198-1.068-2.832-0.144-4.303,2.325
	c-2.196,3.652-9.445,8.894-17.862,12.709l-0.233,0.895l-0.041,0.185c-0.665,0.292-1.331,0.58-2.007,0.839l-44.36,17.763
	c-9.504,3.811-17.459,4.07-17.504,15.423L0,236.582h266.161L256.269,197.941z"/>
</svg>
