<svg version="1.1" id="Слой_1" xmlns="http://www.w3.org/2000/svg" xmlns:xlink="http://www.w3.org/1999/xlink" x="0px" y="0px"
	 width="235.738px" height="235.584px" viewBox="0 0 235.738 235.584" enable-background="new 0 0 235.738 235.584"
	 xml:space="preserve">

<path fill="#ffffff" d="M235.626,185.922c-0.667-3.329-2.746-6.073-6.24-8.238l-48.164-28.451h-0.251c-1.663-0.998-3.909-1.498-6.738-1.498
	c-3.992,0-7.484,1.332-10.481,3.994l-14.224,14.474c-0.333,0.334-0.874,0.625-1.623,0.874c-0.749,0.249-1.29,0.374-1.623,0.374
	l-3.118-0.623c-2.079-0.416-5.075-1.622-8.984-3.617c-3.911-1.997-8.777-5.117-14.598-9.358
	c-5.824-4.243-12.478-10.19-19.965-17.844c-7.654-7.487-13.56-14.101-17.719-19.839c-4.159-5.74-7.237-10.607-9.235-14.601
	c-2.33-4.492-3.827-8.484-4.492-11.978c0-0.497,0.125-1.123,0.375-1.872c0.249-0.748,0.541-1.288,0.874-1.622l12.228-12.228
	c2.164-2.162,3.578-4.824,4.243-7.986c0.665-3.16,0.249-6.073-1.248-8.735L57.939,6.489c-1.165-1.83-2.579-3.369-4.243-4.618
	C52.033,0.623,50.12,0,47.958,0c-2.995,0-5.657,1.165-7.986,3.494L6.78,36.686c-1.665,1.497-3.078,3.451-4.243,5.864
	c-1.165,2.414-1.913,4.783-2.246,7.112c0,0.333-0.084,1.997-0.249,4.992c-0.167,2.995,0.165,7.112,0.997,12.353
	c0.832,5.24,2.413,11.48,4.743,18.716c2.327,7.238,5.822,15.308,10.481,24.208c4.659,8.902,10.814,18.593,18.468,29.074
	c7.653,10.481,17.302,21.462,28.948,32.943c14.64,14.805,28.451,26.453,41.426,34.938c12.978,8.484,24.582,14.847,34.814,19.091
	c10.23,4.243,18.882,6.905,25.954,7.986c7.07,1.081,12.187,1.622,15.347,1.622c1.332,0,2.414-0.042,3.244-0.125
	c0.832-0.084,1.332-0.125,1.499-0.125c2.327-0.332,4.699-1.081,7.112-2.246c2.411-1.165,4.366-2.579,5.864-4.243l33.191-32.941
	C234.959,193.076,236.124,189.747,235.626,185.922z"/>
</svg>
