<svg version="1.1" xmlns="http://www.w3.org/2000/svg" xmlns:xlink="http://www.w3.org/1999/xlink" x="0px" y="0px"
	 width="42.101px" height="42.092px" viewBox="0 0 42.101 42.092" enable-background="new 0 0 42.101 42.092" xml:space="preserve">

<path fill="#ffffff" d="M35.926,6.167C31.95,2.191,26.667,0,21.046,0C15.425,0,10.142,2.191,6.167,6.167
	C2.191,10.142,0,15.425,0,21.046c0,5.621,2.191,10.904,6.167,14.88c3.975,3.975,9.258,6.167,14.879,6.167
	c3.265,0,6.245-0.606,8.609-1.741c2.243-1.083,3.871-2.633,4.59-4.356c0.857-2.07,0.373-4.226-1.325-5.924l-0.06-0.061
	c0.026-0.035,0.06-0.06,0.087-0.087c1.213-1.273,1.213-2.945-0.017-4.174l-2.997-2.997c-0.589-0.606-1.299-0.935-2.053-0.935
	c-0.754,0-1.472,0.32-2.079,0.926l-1.559,1.559c-0.078-0.044-0.148-0.078-0.225-0.112c-0.191-0.095-0.364-0.182-0.511-0.277
	c-1.585-1.004-3.023-2.321-4.4-4.01c-0.606-0.762-1.022-1.412-1.334-2.053c0.39-0.364,0.754-0.736,1.108-1.1
	c0.148-0.156,0.303-0.303,0.459-0.459c1.273-1.273,1.273-2.919,0-4.192l-1.481-1.481c-0.173-0.173-0.338-0.337-0.502-0.511
	c-0.329-0.338-0.667-0.684-1.031-1.022c-0.589-0.581-1.291-0.883-2.035-0.883c-0.745,0-1.455,0.303-2.061,0.883l-0.017,0.017
	l-1.862,1.862c-0.745,0.745-1.178,1.663-1.265,2.719c-0.13,1.646,0.346,3.17,0.719,4.166c0.892,2.408,2.226,4.643,4.209,7.033
	c2.408,2.875,5.309,5.153,8.626,6.755c1.273,0.607,2.979,1.316,4.902,1.447c0.121,0.008,0.243,0.008,0.364,0.008
	c1.342,0,2.477-0.485,3.36-1.446l0.035-0.035c0.026-0.035,0.061-0.069,0.095-0.104l0.052,0.052c1.109,1.109,1.412,2.373,0.875,3.663
	c-0.996,2.364-4.867,4.79-11.277,4.79c-10.462,0-18.967-8.505-18.967-18.968c0-10.462,8.505-18.967,18.967-18.967
	c10.463,0,18.968,8.505,18.968,18.967c0,1.724-0.234,3.421-0.684,5.058c-0.156,0.554,0.173,1.126,0.727,1.282
	c0.554,0.156,1.126-0.173,1.282-0.728c0.502-1.818,0.762-3.707,0.762-5.612C42.092,15.425,39.901,10.142,35.926,6.167z"/>
</svg>
