<svg version="1.1" id="Layer_1" xmlns="http://www.w3.org/2000/svg" xmlns:xlink="http://www.w3.org/1999/xlink" x="0px" y="0px"
	 width="511.999px" height="469.064px" viewBox="876.057 -328.064 511.999 469.064"
	 enable-background="new 876.057 -328.064 511.999 469.064" xml:space="preserve">

<path fill="#FF6600" d="M1344.207-191.673h-21.558v-13.863l13.452-14.814c6.983-7.69,10.828-17.645,10.828-28.033v-35.131
	c0-24.565-19.986-44.55-44.551-44.55h-20.492c-24.565,0-44.55,19.986-44.55,44.55v35.131c0,10.388,3.845,20.344,10.827,28.033
	l13.453,14.816v13.861h-21.558c-20.944,0-38.497,14.764-42.821,34.43c-2.201-0.308-4.445-0.478-6.729-0.478h-25.252v-16.958
	l15.403-16.963c7.701-8.482,11.943-19.463,11.943-30.92v-39.568c0-27.132-22.073-49.203-49.204-49.203
	c-4.252,0-7.697,3.445-7.697,7.697s3.445,7.697,7.697,7.697c18.643,0,33.81,15.166,33.81,33.809v39.568
	c0,7.623-2.822,14.928-7.946,20.571l-15.862,17.469c-2.127,1.369-3.538,3.758-3.538,6.478v28.022c0,4.252,3.445,7.697,7.697,7.697
	h32.949c18.207,0,33.021,14.813,33.021,33.021v48.298h-183.343v-48.298c0-14.196,9.006-26.326,21.602-30.984
	c0.592-0.124,1.156-0.321,1.689-0.573c3.077-0.95,6.344-1.465,9.729-1.465h32.949c4.251,0,7.697-3.445,7.697-7.697v-28.022
	c0-2.719-1.41-5.109-3.538-6.478l-15.862-17.469c-5.124-5.643-7.946-12.949-7.946-20.571v-39.568
	c0-18.642,15.166-33.809,33.81-33.809c4.251,0,7.697-3.445,7.697-7.697s-3.446-7.697-7.697-7.697
	c-27.132,0-49.204,22.072-49.204,49.203v39.568c0,11.456,4.242,22.437,11.943,30.92l15.402,16.962v16.959h-25.252
	c-2.151,0-4.265,0.155-6.343,0.429c-4.342-19.641-21.881-34.381-42.808-34.381h-21.558v-13.863l13.451-14.814
	c6.983-7.69,10.828-17.645,10.828-28.033v-35.131c0-24.565-19.986-44.55-44.551-44.55h-20.491c-24.565,0-44.55,19.986-44.55,44.55
	v35.131c0,10.388,3.845,20.344,10.828,28.033l13.452,14.815v13.862h-21.558c-24.179,0-43.85,19.671-43.85,43.85v49.716
	c0,4.252,3.446,7.697,7.697,7.697h119.758c4.251,0,7.697-3.445,7.697-7.697c0-4.252-3.446-7.697-7.697-7.697H891.451v-42.019
	c0-15.69,12.765-28.456,28.456-28.456h29.255c4.251,0,7.697-3.445,7.697-7.697v-24.88c0-2.677-1.367-5.035-3.441-6.414
	l-14.009-15.428c-4.405-4.851-6.831-11.131-6.831-17.684v-35.132c0-16.077,13.079-29.156,29.156-29.156h20.492
	c16.077,0,29.157,13.079,29.157,29.156v35.131c0,6.553-2.426,12.834-6.831,17.684l-14.01,15.429
	c-2.073,1.379-3.439,3.737-3.439,6.413v24.88c0,4.252,3.446,7.697,7.697,7.697h29.255c13.975,0,25.621,10.129,28.002,23.43
	c-16.127,7.864-27.265,24.425-27.265,43.542v55.995c0,4.252,3.446,7.697,7.697,7.697h198.736c4.252,0,7.697-3.445,7.697-7.697
	v-55.995c0-18.971-10.973-35.419-26.901-43.355c2.305-13.392,13.995-23.617,28.036-23.617h29.255c4.252,0,7.697-3.445,7.697-7.697
	v-24.88c0-2.678-1.367-5.036-3.442-6.415L1259.56-230.7c-4.405-4.85-6.83-11.131-6.83-17.684v-35.131
	c0-16.077,13.079-29.156,29.156-29.156h20.492c16.077,0,29.157,13.079,29.157,29.156v35.131c0,6.553-2.426,12.834-6.831,17.684
	l-14.009,15.429c-2.074,1.379-3.44,3.737-3.44,6.413v24.88c0,4.252,3.445,7.697,7.697,7.697h29.255
	c15.69,0,28.456,12.765,28.456,28.456v42.019h-110.738c-4.252,0-7.697,3.445-7.697,7.697c0,4.252,3.445,7.697,7.697,7.697h118.434
	c4.252,0,7.697-3.445,7.697-7.697v-49.716C1388.057-172.003,1368.386-191.673,1344.207-191.673z"/>
<path fill="#FF6600" d="M1203.39,46.716l-42.046-6.902l-19.557-37.856c-1.321-2.558-3.959-4.165-6.838-4.165
	c-2.879,0-5.517,1.606-6.838,4.165l-19.557,37.856l-42.046,6.902c-2.841,0.467-5.184,2.479-6.074,5.218
	c-0.89,2.738-0.177,5.743,1.847,7.791l29.958,30.297l-6.429,42.12c-0.434,2.846,0.755,5.697,3.085,7.388
	c1.34,0.974,2.928,1.471,4.525,1.471c1.178,0,2.363-0.271,3.454-0.82l38.073-19.13l38.073,19.13
	c2.573,1.293,5.652,1.043,7.979-0.651c2.33-1.691,3.519-4.542,3.085-7.388l-6.43-42.12l29.958-30.297
	c2.025-2.047,2.737-5.052,1.847-7.791C1208.575,49.196,1206.232,47.183,1203.39,46.716z M1163.993,81.947
	c-1.711,1.731-2.502,4.169-2.136,6.573l4.765,31.214l-28.216-14.176c-2.175-1.092-4.737-1.092-6.911,0l-28.216,14.176l4.764-31.214
	c0.367-2.406-0.425-4.844-2.136-6.573l-22.204-22.454l31.16-5.114c2.401-0.395,4.475-1.902,5.591-4.063l14.494-28.055l14.493,28.055
	c1.117,2.161,3.19,3.668,5.591,4.063l31.16,5.114L1163.993,81.947z"/>
<path fill="#FF6600" d="M1371.88-9.88l-42.046-6.902l-19.558-37.856c-1.321-2.558-3.959-4.165-6.838-4.165
	c-2.88,0-5.517,1.606-6.838,4.165l-19.557,37.856l-42.047,6.902c-2.841,0.467-5.184,2.479-6.074,5.218s-0.177,5.744,1.847,7.791
	l29.959,30.297l-6.43,42.121c-0.434,2.846,0.755,5.697,3.085,7.388c2.33,1.692,5.408,1.945,7.979,0.651l38.073-19.13l38.073,19.13
	c1.092,0.549,2.276,0.82,3.454,0.82c1.598,0,3.186-0.496,4.525-1.471c2.33-1.691,3.519-4.542,3.085-7.388l-6.43-42.121
	l29.959-30.297c2.025-2.046,2.737-5.052,1.847-7.791C1377.061-7.401,1374.72-9.413,1371.88-9.88z M1332.48,25.351
	c-1.711,1.73-2.502,4.169-2.136,6.573l4.765,31.215l-28.216-14.176c-1.088-0.546-2.271-0.82-3.456-0.82s-2.369,0.274-3.455,0.82
	l-28.216,14.176l4.765-31.215c0.366-2.406-0.425-4.844-2.136-6.573l-22.203-22.453l31.16-5.114c2.401-0.395,4.475-1.902,5.591-4.063
	l14.493-28.055l14.494,28.055c1.117,2.161,3.19,3.668,5.591,4.063l31.159,5.114L1332.48,25.351z"/>
<path fill="#FF6600" d="M1034.902-9.88l-42.046-6.902l-19.557-37.856c-1.322-2.558-3.959-4.165-6.839-4.165
	c-2.88,0-5.517,1.606-6.839,4.165l-19.555,37.857L898.02-9.879c-2.841,0.467-5.184,2.479-6.074,5.218
	c-0.89,2.738-0.177,5.744,1.847,7.791l29.959,30.297l-6.429,42.121c-0.434,2.846,0.755,5.697,3.085,7.388
	c2.329,1.692,5.407,1.945,7.979,0.651l38.073-19.13l38.072,19.13c1.092,0.549,2.276,0.82,3.454,0.82
	c1.597,0,3.186-0.496,4.525-1.471c2.33-1.691,3.519-4.542,3.085-7.388l-6.429-42.121l29.958-30.297
	c2.024-2.047,2.737-5.052,1.847-7.791C1040.087-7.401,1037.743-9.413,1034.902-9.88z M995.504,25.351
	c-1.711,1.73-2.503,4.169-2.136,6.573l4.764,31.215l-28.215-14.176c-1.087-0.547-2.271-0.82-3.456-0.82s-2.369,0.274-3.456,0.82
	L934.791,63.14l4.765-31.215c0.367-2.406-0.425-4.844-2.136-6.573L915.218,2.898l31.16-5.114c2.401-0.395,4.475-1.902,5.592-4.063
	l14.493-28.055l14.493,28.055c1.117,2.161,3.191,3.668,5.592,4.063l31.16,5.114L995.504,25.351z"/>
</svg>
