<svg version="1.1" id="Layer_1" xmlns="http://www.w3.org/2000/svg" xmlns:xlink="http://www.w3.org/1999/xlink" x="0px" y="0px"
	 width="553.435px" height="464.635px" viewBox="-49 191.022 553.435 464.635" enable-background="new -49 191.022 553.435 464.635"
	 xml:space="preserve">

<g>
	<path fill="#FF6600" d="M410.936,342.942c41.765,0,76.221-33.934,76.221-76.221s-33.934-75.699-76.221-75.699
		c-42.287,0-75.699,33.934-75.699,76.221C335.237,309.53,369.172,342.942,410.936,342.942z M410.936,207.728
		c32.89,0,59.515,26.625,59.515,59.515c0,32.89-26.625,58.993-59.515,58.993c-32.89,0-59.515-26.625-59.515-59.515
		S378.569,207.728,410.936,207.728z"/>
	<path fill="#FF6600" d="M392.664,303.265c1.044,0.522,2.61,1.044,3.654,1.044c1.044,0.522,2.61,0.522,4.177,1.044
		c1.566,0.522,2.61,0.522,4.177,0.522h1.044v7.831v2.61h2.61h7.309h2.61v-2.61v-8.353h0.522c1.566-0.522,3.132-1.044,4.699-2.088
		c1.566-0.522,2.61-1.566,4.177-2.61c1.044-1.044,2.088-2.088,3.132-3.654c1.044-1.044,1.566-2.61,2.61-4.177
		c0.522-1.566,1.044-3.132,1.566-4.699c0.522-1.566,0.522-3.132,0.522-5.221c0-1.566,0-2.61-0.522-4.176
		c-0.522-1.566-0.522-2.61-1.566-4.177c-0.522-1.044-1.044-2.61-2.088-3.654s-1.566-2.088-2.61-3.132
		c-1.044-1.044-2.088-2.088-3.654-2.61c-1.044-1.044-2.61-1.566-3.654-2.088c-1.566-0.522-2.61-1.566-4.177-2.088
		c-1.566-0.522-3.132-1.044-4.177-1.566c-0.522,0-1.566-0.522-2.088-1.044c-0.522-0.522-1.566-0.522-2.088-1.044
		c-0.522-0.522-1.566-0.522-2.088-1.044c-0.522-0.522-1.044-1.044-1.566-1.566c-0.522-0.522-1.044-1.044-1.044-2.088
		c-0.522-0.522-0.522-1.566-0.522-2.088c0-1.044,0-1.566,0-2.61c0-0.522,0.522-1.566,0.522-2.088
		c0.522-0.522,0.522-1.566,1.044-2.088c0.522-0.522,1.044-1.044,1.566-1.566c0.522-0.522,1.566-1.044,2.61-1.044
		c1.044-0.522,1.566-0.522,2.61-0.522c0.522,0,1.044,0,1.566,0c0.522,0,1.044,0,1.566,0c1.044,0,1.566,0,2.61,0.522
		c1.044,0,2.088,0.522,2.61,0.522s1.566,0.522,2.088,0.522c1.044,0,1.566,0.522,2.088,0.522l2.61,1.044l0.522-3.132l1.044-8.353
		v-2.088l-2.088-0.522c-0.522,0-1.566-0.522-2.088-0.522c-0.522,0-1.044-0.522-2.088-0.522c-0.522,0-1.566-0.522-2.61-0.522
		s-1.566-0.522-2.61-0.522h-0.522v-7.309v-2.61h-2.61h-7.309h-2.61v2.61v7.831h-0.522c-1.566,0.522-3.132,1.044-4.699,2.088
		c-1.566,0.522-2.61,1.566-3.654,2.61c-1.044,1.044-2.088,2.088-3.132,3.654c-1.044,1.044-1.566,2.61-2.088,4.177
		s-1.044,3.132-1.566,4.699c-0.522,1.566-0.522,3.654-0.522,5.221c0,1.566,0,2.61,0.522,4.176c0.522,1.566,0.522,2.61,1.566,4.177
		c0.522,1.044,1.566,2.61,2.088,3.654c1.044,1.044,1.566,2.088,2.61,3.132c1.044,1.044,2.088,2.088,3.654,2.61
		c1.044,1.044,2.61,1.566,3.654,2.088c1.566,0.522,3.132,1.566,4.177,2.088c1.566,0.522,3.132,1.044,4.177,1.566
		c0.522,0,1.566,0.522,2.088,1.044c0.522,0.522,1.566,0.522,2.088,1.044c0.522,0.522,1.044,1.044,1.566,1.044
		c0.522,0.522,1.044,1.044,1.566,1.566c0.522,0.522,0.522,1.044,1.044,2.088c0,0.522,0.522,1.566,0.522,2.61s0,1.566,0,2.61
		c0,0.522-0.522,1.566-1.044,2.088c-0.522,0.522-1.044,1.044-1.566,1.566c-0.522,0.522-1.044,1.044-2.088,1.566
		c-0.522,0.522-1.566,0.522-2.088,1.044c-0.522,0-1.566,0.522-2.61,0.522c-0.522,0-1.044,0-2.088,0c-0.522,0-1.566,0-2.088,0
		c-1.044,0-2.088,0-2.61,0c-1.044,0-2.088-0.522-2.61-0.522c-1.044,0-2.088-0.522-3.132-1.044c-1.044-0.522-2.088-0.522-3.132-1.044
		c-0.522,0-1.044-0.522-1.566-0.522c-0.522,0-1.044-0.522-1.566-0.522l-3.132-1.566l-0.522,3.654l-1.044,9.397v1.566l1.566,0.522
		C390.054,302.221,391.098,302.743,392.664,303.265z"/>
	<path fill="#FF6600" d="M48.626,472.936c1.566,0,3.132-0.522,4.699-1.566l113.287-80.92l109.633,45.419
		c2.61,1.044,6.265,0.522,8.353-1.044l88.228-69.956c3.654-2.61,4.177-8.353,1.566-12.007c-2.61-3.654-8.353-4.177-12.007-1.566
		l-84.574,67.346L168.7,373.222c-2.61-1.044-5.743-0.522-7.831,1.044l-116.942,83.53c-3.654,2.61-4.699,7.831-2.088,11.485
		C43.405,471.891,46.015,472.936,48.626,472.936z"/>
	<path fill="#FF6600" d="M496.555,638.951h-38.633V397.237c0-4.699-3.654-8.353-8.353-8.353h-76.743
		c-4.699,0-8.353,3.654-8.353,8.353v241.715h-28.191V480.766c0-4.699-3.654-8.353-8.353-8.353h-77.265
		c-4.699,0-8.353,3.654-8.353,8.353v158.185h-28.191V468.237c0-4.699-3.654-8.353-8.353-8.353h-76.743
		c-4.699,0-8.353,3.654-8.353,8.353v170.714H92.479v-121.64c0-4.699-3.654-8.353-8.353-8.353H6.861
		c-4.699,0-8.353,3.654-8.353,8.353v121.64h-39.155c-4.699,0-8.353,3.654-8.353,8.353c0,4.699,3.654,8.353,8.353,8.353H6.339h76.743
		h45.941h76.743h44.897h76.743h44.897h76.743h46.986c4.699,0,8.353-3.654,8.353-8.353
		C504.908,642.606,501.253,638.951,496.555,638.951z M75.251,638.951H15.214V525.664h60.037V638.951z M197.413,638.951h-60.037
		V476.59h60.037V638.951z M319.054,638.951h-60.037V489.119h60.037V638.951z M441.216,638.951h-60.037V405.59h60.037V638.951z"/>
</g>
</svg>
