<svg version="1.1" id="Слой_3" xmlns="http://www.w3.org/2000/svg" xmlns:xlink="http://www.w3.org/1999/xlink" x="0px" y="0px"
	 width="384.322px" height="456.491px" viewBox="2428.236 161.603 384.322 456.491"
	 enable-background="new 2428.236 161.603 384.322 456.491" xml:space="preserve">

<g>
	<g>
		<path fill="#FF6600" d="M2538.422,511.594c0.107,0,0.215-0.002,0.323-0.006c4.562-0.176,8.118-4.015,7.943-8.578
			c-0.022-0.568-2.178-56.973-1.94-73.59c0.189-13.247,4.285-42.9,6.487-58.83c0.541-3.925,0.977-7.081,1.229-9.071
			c1.012-7.995,4.67-30.443,6.111-39.208c2.573-1.881,7.871-5.07,15.196-5.985c12.875-1.61,65.13-2.073,77.651-1.251
			c14.121,0.927,24.919,4.82,28.292,7.225c0.931,5.648,3.788,23.078,5.443,34.184c-0.187,0.875-0.241,1.793-0.126,2.732
			c0.268,2.177,0.737,5.588,1.33,9.908c2.23,16.22,6.38,46.413,6.388,59.836c0.019,29.858-1.917,75.282-1.937,75.737
			c-0.196,4.561,3.343,8.418,7.903,8.614c0.122,0.005,0.241,0.008,0.361,0.008c0.177,0,0.352-0.015,0.527-0.026
			c0.076,0.005,0.15,0.017,0.226,0.02c0.108,0.004,0.216,0.006,0.323,0.006c4.419,0,8.084-3.495,8.255-7.949
			c0.089-2.336,2.193-57.411,1.95-74.459c-0.203-14.265-4.232-43.43-6.639-60.855c-0.531-3.844-0.958-6.937-1.205-8.886
			c-1.302-10.287-6.569-42.068-6.792-43.416c-0.161-0.969-0.492-1.864-0.945-2.675c-0.306-0.86-0.752-1.687-1.361-2.436
			c-7.697-9.485-29.336-13.301-40.909-14.062c-13.672-0.897-66.55-0.436-80.785,1.343c-11.794,1.475-20.074,6.796-24.009,9.882
			c-2.48,1.082-4.379,3.355-4.855,6.224c-0.223,1.348-5.491,33.129-6.792,43.417c-0.247,1.949-0.674,5.04-1.205,8.883
			c-2.406,17.426-6.436,46.592-6.639,60.858c-0.243,17.049,1.861,72.123,1.95,74.459
			C2530.338,508.099,2534.003,511.594,2538.422,511.594z"/>
		<path fill="#FF6600" d="M2812.328,517.409c-1.345-14.341-14.489-23.449-26.92-26.113c-2.516-0.538-5.07-0.812-7.592-0.812
			c-1.737,0-3.437,0.13-5.1,0.365c0.159-0.542,0.311-1.08,0.457-1.614c5.063-18.565,6.126-41.839,6.126-58.093
			c0-17.546-2.445-35.296-6.71-48.699c-1.104-3.471-2.763-8.072-4.682-13.4c-4.113-11.411-9.745-27.04-13.674-42.098
			c-6.971-26.723-13.89-42.693-23.137-53.399c-9.255-10.716-23.371-12.874-35.826-14.778c-3.204-0.49-6.231-0.953-9.166-1.539
			c-4.368-0.874-11.615-1.499-19.774-1.947v-15.556h17.688c6.744,0,12.668-2.834,16.254-7.777c3.568-4.918,4.432-11.36,2.372-17.674
			l-12.325-37.772c-2.772-8.494-12.458-14.9-22.53-14.9h-97.896c-10.072,0-19.758,6.406-22.53,14.9l-12.324,37.772
			c-2.061,6.314-1.197,12.756,2.371,17.675c3.586,4.942,9.51,7.777,16.254,7.777h17.688v15.521
			c-8.422,0.45-15.934,1.086-20.416,1.982c-2.936,0.587-5.962,1.05-9.167,1.539c-12.455,1.904-26.571,4.062-35.826,14.778
			c-9.247,10.706-16.167,26.676-23.137,53.399c-3.929,15.058-9.561,30.687-13.674,42.098c-1.919,5.328-3.577,9.929-4.682,13.4
			c-4.265,13.403-6.711,31.153-6.711,48.699c0,16.254,1.063,39.527,6.126,58.093c0.355,1.303,0.755,2.634,1.182,3.978
			c-2.188-0.476-4.385-0.725-6.584-0.725c-5.987,0-11.894,1.679-18.589,5.284c-12.982,6.992-12.696,26.039-10.451,45.581
			c1.993,17.363,5.824,24.771,11.126,35.024l1.081,2.094c9.04,17.578,31.188,27.855,40.291,31.458
			c11.603,4.593,35.903,5.557,54.246,5.557c5.493,0,9.31-0.091,10.134-0.113c3.833,0.036,76.846,0.72,132.81,0.72
			c33.74,0,54.86-0.248,62.771-0.737c29.846-1.842,47.396-24.143,58-40.757C2810.834,559.441,2813.424,529.099,2812.328,517.409z
			 M2553.663,223.193c-1.365,0-2.44-0.356-2.873-0.953c-0.415-0.573-0.429-1.633-0.036-2.837l12.325-37.772
			c0.391-1.2,3.35-3.496,6.813-3.496h97.896c3.463,0,6.422,2.295,6.813,3.496l12.326,37.773c0.392,1.203,0.378,2.264-0.037,2.837
			c-0.433,0.597-1.507,0.953-2.873,0.953H2553.663z M2618.398,254.151c-1.104,0-15.142,0.01-30.515,0.444v-14.87h61.914v14.888
			c-15.623-0.453-30.038-0.463-31.157-0.463c-0.041,0-0.08,0.006-0.121,0.006c-0.845,0.012-1.66,0.151-2.426,0.399
			c0.766-0.248,1.581-0.387,2.426-0.399C2618.479,254.156,2618.439,254.151,2618.398,254.151z M2480.203,387.456
			c1.009-3.172,2.618-7.637,4.481-12.807c4.22-11.71,9.999-27.746,14.117-43.531c6.207-23.793,12.268-38.216,19.652-46.766
			c5.27-6.101,15.248-7.626,25.813-9.241c3.247-0.496,6.605-1.01,9.911-1.67c11.303-2.261,50.192-2.756,64.222-2.757
			c0.041,0,0.08-0.006,0.121-0.006c-0.845-0.012-1.66-0.151-2.426-0.399c0.766,0.248,1.581,0.387,2.426,0.399
			c0.041,0.001,0.08,0.006,0.121,0.006c14.03,0,52.919,0.496,64.222,2.757c3.306,0.661,6.664,1.174,9.911,1.67
			c10.564,1.615,20.543,3.14,25.813,9.241c7.384,8.551,13.445,22.974,19.652,46.766c4.118,15.785,9.897,31.821,14.117,43.531
			c1.863,5.17,3.472,9.634,4.482,12.807c3.714,11.674,5.932,28.005,5.932,43.687c0,15.244-0.962,36.943-5.543,53.743
			c-1.161,4.258-2.861,8.933-4.699,13.449v0c-7.994,4.848-19.022,18.322-25.153,26.3c-12.81-4.949-44.862-13.91-108.973-13.91
			c-66.109,0-99.356,9.477-111.919,14.257c-4.306-4.537-11.299-11.696-18.132-17.801c-3.1-6.768-6.575-15.114-8.534-22.294
			c-4.581-16.8-5.543-38.498-5.543-53.743C2474.271,415.461,2476.488,399.13,2480.203,387.456z M2488.003,596.559
			c-15.111-5.981-27.247-15.042-31.673-23.648l-1.097-2.126c-4.99-9.65-7.739-14.966-9.387-29.316
			c-2.823-24.586,0.714-28.519,1.866-29.138c4.191-2.257,7.607-3.309,10.75-3.309c3.064,0,6.175,1.002,9.512,3.063
			c1.914,1.182,4.277,3.021,6.842,5.217c4.899,4.193,10.543,9.7,15.273,14.518c3.441,3.505,6.399,6.645,8.224,8.638
			c2.583,2.821,6.704,3.533,10.049,1.678c0.067-0.036,1.766-0.912,5.424-2.221c-1.151,7.774-2.406,18.051-2.406,25.918
			c0,0.263,0.082,20.77,2.408,34.531C2501.628,599.655,2492.502,598.339,2488.003,596.559z M2707.184,601.489
			c-8.064,0.048-17.424,0.072-28.073,0.072c-57.119,0-132.052-0.713-132.803-0.721c-0.027,0-0.053,0-0.08,0
			c-0.078,0-0.156,0.001-0.234,0.003c-0.039,0.002-3.986,0.111-9.828,0.111c-1.854,0-3.672-0.012-5.457-0.032
			c-1.366-5.662-2.796-21.058-2.796-35.091c0-9.634,2.281-24.252,3.394-30.816c5.107-1.135,11.162-2.279,18.244-3.328v34.144
			c0,4.565,3.701,8.266,8.266,8.266s8.266-3.701,8.266-8.266v-36.18c4.551-0.457,9.407-0.866,14.587-1.211v37.392
			c0,4.565,3.701,8.266,8.266,8.266s8.266-3.701,8.266-8.266v-38.22c4.139-0.143,8.45-0.245,12.93-0.302v38.522
			c0,4.565,3.701,8.266,8.266,8.266s8.266-3.701,8.266-8.266V527.31c4.811,0.061,9.413,0.175,13.813,0.336v38.186
			c0,4.565,3.701,8.266,8.266,8.266s8.266-3.701,8.266-8.266v-37.318c5.201,0.362,10.063,0.788,14.587,1.264v36.054
			c0,4.565,3.701,8.266,8.266,8.266c4.565,0,8.266-3.701,8.266-8.266v-33.907c7.459,1.171,13.648,2.447,18.701,3.685
			c1.145,6.814,3.293,20.854,3.293,30.222C2710.124,580.37,2708.589,596.371,2707.184,601.489z M2785.947,567.705
			c-9.394,14.719-23.009,31.788-45.083,33.152c-3.221,0.199-8.838,0.356-16.788,0.471c2.492-13.743,2.581-35.227,2.581-35.496
			c0-7.403-1.112-16.941-2.202-24.519c0.856,0.393,1.272,0.623,1.294,0.635c3.674,2.225,8.436,1.262,10.963-2.21
			c2.265-3.114,4.801-6.411,7.381-9.604c6.752-8.355,13.814-15.998,17.176-17.767c1.475-0.776,2.845-1.454,4.136-2.049
			c1.005-2.291,2.02-4.698,2.995-7.15c-0.975,2.452-1.99,4.858-2.995,7.15c5.027-2.315,8.804-3.301,12.411-3.301
			c1.379,0,2.729,0.145,4.127,0.445c6.515,1.396,13.39,5.791,13.924,11.489C2796.789,528.779,2794.122,554.896,2785.947,567.705z"/>
	</g>
</g>
</svg>
