<svg version="1.1" id="Layer_1" xmlns="http://www.w3.org/2000/svg" xmlns:xlink="http://www.w3.org/1999/xlink" x="0px" y="0px"
	 width="511.999px" height="514.046px" viewBox="2646.057 -396.897 511.999 514.046"
	 enable-background="new 2646.057 -396.897 511.999 514.046" xml:space="preserve">

<g>
	<path fill="#FF6600" d="M2999.205-66.068c-3.111-7.882-10.598-12.976-19.071-12.976c-2.58,0-5.111,0.483-7.525,1.436l-0.154,0.061
		l-10.925-27.669c73.095-33.618,108.11-119.205,78.211-194.936c-11.484-29.086-31.251-53.607-57.162-70.911
		c-25.307-16.901-54.711-25.834-85.033-25.834c-19.204,0-38.074,3.606-56.086,10.717c-78.384,30.949-116.976,119.897-86.028,198.281
		c11.484,29.086,31.251,53.607,57.161,70.911c25.308,16.901,54.712,25.834,85.034,25.834c16.382,0,32.519-2.634,48.091-7.82
		l10.925,27.67l-0.155,0.061c-10.514,4.151-15.69,16.082-11.54,26.596l58.759,148.82c3.112,7.882,10.598,12.975,19.071,12.975
		c2.58,0,5.112-0.483,7.524-1.436l16.123-6.366c10.514-4.151,15.689-16.082,11.539-26.596L2999.205-66.068z M2819.76-132.517
		c3.364-3.402,7.456-6.082,12.028-7.773c0.592-0.124,1.156-0.321,1.689-0.573c3.077-0.95,6.344-1.464,9.729-1.464h32.949
		c4.251,0,7.697-3.445,7.697-7.697v-28.022c0-2.719-1.41-5.109-3.538-6.478l-15.862-17.469c-5.124-5.643-7.947-12.949-7.947-20.571
		v-39.568c0-18.642,15.167-33.809,33.81-33.809c4.251,0,7.697-3.445,7.697-7.697s-3.446-7.697-7.697-7.697
		c-27.132,0-49.204,22.072-49.204,49.203v39.568c0,11.456,4.242,22.437,11.943,30.92l15.403,16.962v16.959h-25.252
		c-2.151,0-4.265,0.155-6.343,0.429l-14.806,4.443c-5.469,2.667-10.361,6.336-14.441,10.764
		c-15.685-13.889-28.272-31.538-36.374-52.056c-27.506-69.665,6.794-148.719,76.458-176.225c16.017-6.324,32.786-9.53,49.844-9.53
		c56.15,0,105.759,33.752,126.383,85.989c20.786,52.646,6.269,110.648-32.127,147.719c-2.975-2.53-6.251-4.716-9.78-6.474
		l-14.785-4.58c-2.201-0.308-4.445-0.478-6.729-0.478h-25.252v-16.958l15.404-16.963c7.701-8.482,11.943-19.464,11.943-30.92
		v-39.568c0-27.132-22.073-49.203-49.204-49.203c-4.252,0-7.697,3.445-7.697,7.697s3.445,7.697,7.697,7.697
		c18.643,0,33.81,15.166,33.81,33.809v39.568c0,7.623-2.822,14.928-7.945,20.571l-15.862,17.469
		c-2.127,1.369-3.538,3.758-3.538,6.478v28.022c0,4.252,3.445,7.697,7.697,7.697h32.949c7.256,0,13.961,2.366,19.414,6.35
		c-9.7,7.397-20.56,13.597-32.453,18.293c-16.016,6.324-32.785,9.53-49.843,9.53C2868.968-108.154,2842.026-116.963,2819.76-132.517
		z M3040.182,93.535l-16.123,6.366c-0.416,0.164-0.848,0.248-1.281,0.248c-1.448,0-2.727-0.871-3.259-2.218l-58.759-148.82
		c-0.709-1.795,0.175-3.833,1.971-4.541l14.125-5.578h5.758c0.328,0.331,0.599,0.727,0.779,1.182l58.759,148.82
		C3042.86,90.79,3041.977,92.827,3040.182,93.535z"/>
	<path fill="#FF6600" d="M3114.207-191.673h-21.558v-13.863l13.451-14.814c6.983-7.69,10.828-17.645,10.828-28.033v-35.131
		c0-24.565-19.986-44.55-44.551-44.55h-20.492c-4.008,0-7.889,0.541-11.586,1.538c2.642,4.585,5.058,9.32,7.266,14.179
		c1.41-0.21,2.853-0.322,4.321-0.322h20.492c16.077,0,29.157,13.079,29.157,29.156v35.131c0,6.553-2.426,12.834-6.831,17.684
		l-14.009,15.429c-2.074,1.379-3.44,3.737-3.44,6.413v24.88c0,4.252,3.445,7.697,7.697,7.697h29.255
		c15.69,0,28.456,12.765,28.456,28.456v42.019h-110.738c-4.252,0-7.697,3.445-7.697,7.697c0,4.252,3.445,7.697,7.697,7.697h118.434
		c4.252,0,7.697-3.445,7.697-7.697v-49.716C3158.057-172.003,3138.386-191.673,3114.207-191.673z"/>
	<path fill="#FF6600" d="M2933.348-61.008h-123.162v-43.271c-1.431-0.894-2.858-1.797-4.266-2.738
		c-3.724-2.487-7.32-5.122-10.803-7.878c-0.211,1.834-0.325,3.697-0.325,5.587v55.995c0,4.252,3.446,7.697,7.697,7.697h135.73
		l-3.222-8.161C2934.06-56.151,2933.522-58.586,2933.348-61.008z"/>
	<path fill="#FF6600" d="M2999.847-79.381l9.075,22.986v-52.913c0-4.084-0.511-8.049-1.468-11.839
		c-4.412,3.954-9.065,7.683-13.942,11.174c0.005,0.223,0.017,0.444,0.017,0.668v20.756
		C2996.245-86.079,2998.428-82.975,2999.847-79.381z"/>
	<path fill="#FF6600" d="M2773.512-105.804h-112.061v-42.019c0-15.69,12.765-28.456,28.456-28.456h29.255
		c4.251,0,7.697-3.445,7.697-7.697v-24.88c0-2.677-1.367-5.035-3.441-6.414l-14.009-15.428c-4.405-4.851-6.831-11.131-6.831-17.684
		v-35.132c0-16.077,13.079-29.156,29.156-29.156h16.086c2.387-5.21,5.045-10.297,7.961-15.24c-1.174-0.093-2.358-0.155-3.556-0.155
		h-20.491c-24.565,0-44.55,19.986-44.55,44.55v35.131c0,10.388,3.845,20.344,10.828,28.033l13.451,14.815v13.862h-21.558
		c-24.179,0-43.85,19.671-43.85,43.85v49.716c0,4.252,3.446,7.697,7.697,7.697h119.758c4.251,0,7.697-3.445,7.697-7.697
		C2781.209-102.359,2777.763-105.804,2773.512-105.804z"/>
</g>
</svg>
