<svg version="1.1" id="Layer_1" xmlns="http://www.w3.org/2000/svg" xmlns:xlink="http://www.w3.org/1999/xlink" x="0px" y="0px"
	 width="475.038px" height="514.482px" viewBox="3543.167 -396.897 475.038 514.482"
	 enable-background="new 3543.167 -396.897 475.038 514.482" xml:space="preserve">

	<path fill="#FF6600" d="M3916.024,116.584h-24.009c-4.287,0-7.717-2.572-8.575-6.86l-2.573-12.005
		c-0.857-6.002-5.145-10.29-10.29-12.862c-5.145-2.572-11.147-1.715-16.292,1.715l-10.29,7.717
		c-3.43,2.572-8.575,1.715-11.147-0.857L3815.7,76.283c-2.572-2.572-3.43-7.717-0.857-11.147l6.86-10.29
		c3.43-5.145,4.287-11.147,1.715-16.292c-2.572-5.145-6.86-9.432-12.862-10.29l-12.862-1.715c-4.287-0.857-6.86-4.287-6.86-8.575
		V-6.034c0-4.287,2.572-7.717,6.86-8.575l12.005-2.572c6.002-0.857,10.29-5.145,12.862-10.29c2.572-5.145,1.715-11.147-1.715-16.292
		l-7.717-10.29c-2.573-3.43-1.715-8.575,0.857-11.147l17.149-17.149c2.572-2.572,7.717-3.43,11.147-0.857l13.719,9.432
		c5.145,3.43,10.29,3.43,16.292,1.715c5.145-2.572,9.432-6.86,10.29-12.862l3.43-16.292c0.858-4.287,4.287-6.86,8.575-6.86h24.009
		c4.287,0,7.717,3.43,8.575,6.86l1.715,12.862c0.857,6.002,4.287,10.29,10.29,12.862c5.145,2.572,11.147,1.715,16.292-1.715
		l10.29-6.86c3.43-2.572,7.717-1.715,11.147,0.857l17.149,17.149c2.573,2.572,3.43,7.717,0.857,11.147l-7.717,10.29
		c-3.43,5.145-4.287,10.29-1.715,16.292c2.573,5.145,6.86,9.432,12.862,10.29l12.005,2.572c4.287,0.857,6.86,4.287,6.86,8.575
		v24.009c0,4.287-3.43,7.717-6.86,8.575l-12.862,1.715c-6.002,0.857-10.29,4.287-12.862,10.29
		c-2.573,5.145-1.715,11.147,1.715,16.292l6.86,10.29c2.572,3.43,1.715,7.717-0.857,11.147l-17.149,17.149
		c-2.573,2.572-7.717,3.43-11.147,0.857l-7.717-5.145c-5.145-3.43-11.147-4.287-16.292-1.715s-9.432,6.86-10.29,12.862l-1.715,9.432
		C3923.741,113.154,3920.312,116.584,3916.024,116.584z M3899.732,99.435h9.432V97.72c1.715-12.005,9.432-21.437,20.579-26.582
		c11.147-4.287,23.152-3.43,33.441,4.287l1.715,0.857l6.86-6.86l-4.287-4.287c-6.86-9.432-7.717-22.294-3.43-32.584
		c4.287-11.147,14.577-18.007,25.724-19.722l6.002-0.857V2.541l-5.145-0.857c-11.147-2.572-20.579-10.29-24.866-20.579
		c-4.287-11.147-2.573-23.152,4.287-32.584l3.43-4.287l-6.86-7.717l-4.287,3.43c-9.432,6.86-22.294,7.717-32.584,3.43
		c-10.29-4.287-18.007-14.577-19.722-25.724l-0.857-6.86h-9.432l-1.715,9.432c-2.572,11.147-9.432,20.579-20.579,24.867
		c-10.29,4.287-22.294,3.43-31.726-3.43l-7.717-5.145l-6.86,6.86l3.43,4.287c6.86,9.432,8.575,21.437,4.287,32.584
		s-13.719,18.864-24.867,20.579l-6.002,1.715v9.432l6.002,0.857c12.005,1.715,21.437,9.432,25.724,19.722
		c4.287,11.147,3.43,23.152-3.43,32.584l-2.572,4.287l6.86,6.86l4.287-3.43c9.432-6.86,21.437-8.575,32.584-4.287
		c11.147,4.287,18.865,13.719,20.579,24.867L3899.732,99.435z"/>
	<path fill="#FF6600" d="M3902.305,47.987c-24.009,0-42.874-18.864-42.874-42.873s18.865-42.873,42.874-42.873
		c24.009,0,42.874,18.864,42.874,42.873S3926.314,47.987,3902.305,47.987z M3902.305-20.611c-14.577,0-25.724,11.147-25.724,25.724
		s11.147,25.724,25.724,25.724c14.577,0,25.724-11.147,25.724-25.724S3916.882-20.611,3902.305-20.611z"/>
	<path fill="#FF6600" d="M3816.558-312.15h-120.046c-9.432,0-17.149-7.717-17.149-17.149v-51.448
		c0-9.432,7.717-17.149,17.149-17.149h120.046c9.432,0,17.149,7.717,17.149,17.149v51.448
		C3833.707-319.868,3825.99-312.15,3816.558-312.15z M3816.558-329.3v8.575V-329.3L3816.558-329.3z M3696.512-380.748v51.448
		h120.046v-51.448H3696.512z"/>
	<path fill="#FF6600" d="M3850.856-200.679h-188.643c-3.43,0-6.002-1.715-7.717-4.287c-1.715-2.572-0.858-6.002,0.857-8.575
		l36.871-51.448c5.145-7.717,13.719-12.005,23.152-12.005h82.317c9.432,0,18.007,4.287,23.152,12.005l36.871,51.448
		c1.715,2.572,1.715,6.002,0.857,8.575C3856.859-202.394,3854.286-200.679,3850.856-200.679z M3678.505-217.829h155.202
		l-27.439-38.586c-1.715-2.572-5.145-4.287-9.432-4.287h-82.317c-3.43,0-6.86,1.715-9.432,4.287L3678.505-217.829z"/>
	<path fill="#FF6600" d="M3687.937-114.932c-18.864,0-34.299-15.434-34.299-34.299s15.435-34.299,34.299-34.299
		c18.865,0,34.299,15.434,34.299,34.299S3706.802-114.932,3687.937-114.932z M3687.937-166.381c-9.432,0-17.149,7.717-17.149,17.149
		c0,9.432,7.717,17.149,17.149,17.149s17.149-7.717,17.149-17.149C3705.087-158.663,3697.369-166.381,3687.937-166.381z"/>
	<path fill="#FF6600" d="M3825.133-114.932c-18.865,0-34.299-15.434-34.299-34.299s15.434-34.299,34.299-34.299
		c18.864,0,34.299,15.434,34.299,34.299S3843.997-114.932,3825.133-114.932z M3825.133-166.381c-9.432,0-17.149,7.717-17.149,17.149
		c0,9.432,7.717,17.149,17.149,17.149c9.432,0,17.149-7.717,17.149-17.149C3842.282-158.663,3834.565-166.381,3825.133-166.381z"/>
	<path fill="#FF6600" d="M3871.436-140.657h-20.579c-5.145,0-8.574-3.43-8.574-8.575c0-9.432-7.717-17.149-17.149-17.149
		c-9.432,0-17.149,7.717-17.149,17.149c0,5.145-3.43,8.575-8.575,8.575h-85.747c-5.145,0-8.575-3.43-8.575-8.575
		c0-9.432-7.717-17.149-17.149-17.149s-17.149,7.717-17.149,17.149c0,5.145-3.43,8.575-8.575,8.575h-20.579
		c-12.862,0-22.294-9.432-22.294-22.294v-33.441c0-12.005,9.432-22.294,22.294-22.294h230.659c12.005,0,22.294,9.432,22.294,22.294
		v33.441C3893.73-150.089,3884.298-140.657,3871.436-140.657z M3858.574-157.806h13.719c2.573,0,5.145-2.572,5.145-5.145v-33.441
		c0-2.572-2.572-5.145-5.145-5.145h-230.659c-2.573,0-5.145,2.572-5.145,5.145v33.441c0,2.572,2.572,5.145,5.145,5.145h13.719
		c3.43-14.577,17.149-25.724,33.441-25.724c16.292,0,29.154,11.147,33.441,25.724h71.17c3.43-14.577,17.149-25.724,33.441-25.724
		S3854.286-172.383,3858.574-157.806z"/>
	<path fill="#FF6600" d="M3756.535-54.91h-128.62c-5.145,0-8.575-3.43-8.575-8.575s3.43-8.575,8.575-8.575h128.62
		c5.145,0,8.575,3.43,8.575,8.575S3761.68-54.91,3756.535-54.91z"/>
	<path fill="#FF6600" d="M3756.535-12.036h-128.62c-5.145,0-8.575-3.43-8.575-8.575s3.43-8.575,8.575-8.575h128.62
		c5.145,0,8.575,3.43,8.575,8.575S3761.68-12.036,3756.535-12.036z"/>
	<path fill="#FF6600" d="M3756.535,30.837h-128.62c-5.145,0-8.575-3.43-8.575-8.575s3.43-8.575,8.575-8.575h128.62
		c5.145,0,8.575,3.43,8.575,8.575S3761.68,30.837,3756.535,30.837z"/>
	<path fill="#FF6600" d="M3756.535-200.679c-5.145,0-8.575-3.43-8.575-8.575v-60.023c0-5.145,3.43-8.575,8.575-8.575
		s8.575,3.43,8.575,8.575v60.023C3765.11-204.109,3761.68-200.679,3756.535-200.679z"/>
	<path fill="#FF6600" d="M3892.015,116.584h-324.124c-14.577,0-25.724-11.147-25.724-25.724v-445.884
		c0-14.577,11.147-25.724,25.724-25.724h111.471c0-9.432,7.717-17.149,17.149-17.149h120.046c9.432,0,17.149,7.717,17.149,17.149
		h111.471c14.577,0,25.724,11.147,25.724,25.724v284.68c0,2.572-1.715,5.145-3.43,6.86l-5.145,3.43
		c-9.432,6.86-22.294,7.717-32.584,3.43c-10.29-4.287-18.007-14.577-19.722-25.724l-0.857-6.86h-9.432l-1.715,9.432
		c-2.572,11.147-9.432,20.579-20.579,24.867c-10.29,4.287-22.294,3.43-31.726-3.43l-7.717-5.145l-6.86,6.86l3.43,4.287
		c6.86,9.432,8.575,21.437,4.287,32.584s-13.719,18.864-24.867,20.579l-6.002,1.715v9.432l6.002,0.857
		c12.005,1.715,21.437,9.432,25.724,19.722c4.287,11.147,3.43,23.152-3.43,32.584l-2.572,4.287l6.86,6.86l4.287-3.43
		c9.432-6.86,21.437-8.575,32.584-4.287c11.147,4.287,18.865,13.719,20.579,24.867l2.573,12.005c0.857,2.572,0,5.145-1.715,6.86
		C3897.16,115.727,3894.587,116.584,3892.015,116.584z M3567.892-363.599c-5.145,0-8.575,3.43-8.575,8.575V90.86
		c0,5.145,3.43,8.575,8.575,8.575h313.834v-2.572c-0.857-6.002-5.145-10.29-10.29-12.862s-11.147-1.715-16.292,1.715l0,0
		l-10.29,7.717c-3.43,2.572-7.717,1.715-11.147-0.857l-17.149-17.149c-2.573-2.572-3.43-7.717-0.858-11.147l6.86-10.29
		c3.43-5.145,4.287-11.147,1.715-16.292c-2.572-5.145-6.86-9.432-12.862-10.29l-12.862-1.715c-4.287-0.857-6.86-4.287-6.86-8.575
		V-6.891c0-4.287,2.572-7.717,6.86-8.575l12.005-2.572c6.002-0.857,10.29-5.145,12.862-10.29c2.573-5.145,1.715-11.147-1.715-16.292
		l-7.717-10.29c-2.573-3.43-2.573-8.575,0.857-11.147l17.149-17.149c2.573-2.572,7.717-3.43,11.147-0.857l13.719,9.432
		c5.145,3.43,10.29,3.43,16.292,1.715c5.145-2.572,9.432-6.86,10.29-12.862l3.43-16.292c0.857-4.287,4.287-6.86,8.575-6.86h24.009
		c4.287,0,7.717,3.43,8.575,6.86l1.715,12.862c0.858,6.002,4.287,10.29,10.29,12.862c5.145,2.572,11.147,1.715,16.292-1.715
		l0.857-0.857v-276.105c0-5.145-3.43-8.575-8.575-8.575h-123.476c-5.145,0-8.575-3.43-8.575-8.575v-8.575h-120.046v8.575
		c0,5.145-3.43,8.575-8.575,8.575H3567.892z M3849.999,79.713L3849.999,79.713L3849.999,79.713z"/>
	<path fill="#FF6600" d="M3825.133,82.286h-231.517c-9.432,0-17.149-7.717-17.149-17.149V-329.3c0-9.432,7.717-17.149,17.149-17.149
		h94.322c5.145,0,8.575,3.43,8.575,8.575v8.575h120.046v-8.575c0-5.145,3.43-8.575,8.575-8.575h94.322
		c9.432,0,17.149,7.717,17.149,17.149v260.671c0,3.43-1.715,6.002-5.145,7.717c-2.573,1.715-6.002,0.857-8.575-0.857
		c-6.86-5.145-12.005-12.862-12.862-22.294l-0.857-5.145h-9.432l-1.715,9.432c-2.572,11.147-9.432,20.579-20.579,24.867
		c-10.29,4.287-22.294,3.43-31.726-3.43l-7.717-5.145l-6.86,6.86l3.43,4.287c6.86,9.432,8.575,21.437,4.287,32.584
		s-13.719,18.864-24.867,20.579l-6.002,1.715v9.432l6.002,0.857c12.005,1.715,21.437,9.432,25.724,19.722
		c4.287,11.147,3.43,23.152-3.43,32.584l-3.43,5.145c0.857,1.715,0.857,4.287,0,6.86
		C3831.992,80.571,3828.562,82.286,3825.133,82.286z M3593.616-329.3V65.136H3815.7l6.86-9.432
		c3.43-5.145,4.287-11.147,1.715-16.292c-2.572-5.145-6.86-9.432-12.862-10.29l-12.862-1.715c-4.287-0.857-6.86-4.287-6.86-8.575
		V-5.176c0-4.287,2.573-7.717,6.86-8.575l12.004-2.572c6.002-0.857,10.29-5.145,12.862-10.29c2.573-5.145,1.715-11.147-1.715-16.292
		l-7.717-10.29c-2.573-3.43-1.715-7.717,0.857-11.147l17.149-17.149c2.573-2.572,7.717-3.43,11.147-0.857l13.719,9.432
		c5.145,3.43,10.29,3.43,16.292,1.715c5.145-2.572,9.432-6.86,10.29-12.862l3.43-16.292c0.857-4.287,4.287-6.86,8.575-6.86h24.009
		c0.857,0,2.573,0,3.43,0.857V-329.3h-89.177c0,9.432-7.717,17.149-17.149,17.149h-120.046c-9.432,0-17.149-7.717-17.149-17.149
		H3593.616z"/>

</svg>
