
<svg version="1.1" id="Layer_1" xmlns="http://www.w3.org/2000/svg" xmlns:xlink="http://www.w3.org/1999/xlink" x="0px" y="0px"
	 width="425.331px" height="509.799px" viewBox="4496.133 -396.5 425.331 509.799"
	 enable-background="new 4496.133 -396.5 425.331 509.799" xml:space="preserve">
<g>
	<path fill="#FF6600" d="M4820.624-302.683c0.064,0.098,0.122,0.2,0.183,0.301C4820.746-302.483,4820.688-302.584,4820.624-302.683z
		"/>
	<path fill="#FF6600" d="M4820.143-303.346c0.079,0.099,0.153,0.202,0.228,0.305
		C4820.295-303.143,4820.222-303.246,4820.143-303.346z"/>
	<path fill="#FF6600" d="M4821.384-301.235c0.038,0.092,0.069,0.187,0.103,0.281
		C4821.453-301.048,4821.421-301.143,4821.384-301.235z"/>
	<path fill="#FF6600" d="M4821.039-301.977c0.05,0.094,0.093,0.192,0.139,0.288C4821.132-301.785,4821.089-301.882,4821.039-301.977
		z"/>
	<path fill="#FF6600" d="M4821.655-300.467c0.03,0.099,0.052,0.202,0.078,0.303C4821.707-300.265,4821.685-300.367,4821.655-300.467
		z"/>
	<path fill="#FF6600" d="M4821.851-299.678c0.026,0.132,0.042,0.267,0.061,0.4C4821.892-299.411,4821.876-299.546,4821.851-299.678z
		"/>
	<path fill="#FF6600" d="M4732.353-395.441c0.06,0.033,0.117,0.072,0.176,0.107C4732.47-395.369,4732.413-395.408,4732.353-395.441z
		"/>
	<path fill="#FF6600" d="M4733.06-395.003c0.085,0.058,0.165,0.123,0.247,0.184C4733.224-394.88,4733.145-394.945,4733.06-395.003z"
		/>
	<path fill="#FF6600" d="M4821.971-298.868c0.027,0.275,0.042,0.553,0.042,0.835
		C4822.013-298.314,4821.998-298.592,4821.971-298.868z"/>
	<path fill="#FF6600" d="M4731.603-395.809c0.009,0.004,0.018,0.009,0.027,0.013C4731.62-395.8,4731.612-395.805,4731.603-395.809z"
		/>
	<path fill="#FF6600" d="M4733.723-394.496c0.088,0.074,0.171,0.155,0.256,0.233
		C4733.894-394.341,4733.811-394.422,4733.723-394.496z"/>
	<path fill="#FF6600" d="M4821.487-300.954c0.059,0.161,0.119,0.322,0.168,0.487
		C4821.605-300.633,4821.546-300.793,4821.487-300.954z"/>
	<path fill="#FF6600" d="M4821.912-299.278c0.02,0.136,0.045,0.272,0.059,0.409C4821.957-299.007,4821.932-299.141,4821.912-299.278
		z"/>
	<path fill="#FF6600" d="M4821.178-301.688c0.071,0.15,0.143,0.3,0.206,0.453C4821.321-301.389,4821.25-301.539,4821.178-301.688z"
		/>
	<path fill="#FF6600" d="M4820.37-303.041c0.086,0.118,0.174,0.236,0.254,0.358C4820.543-302.805,4820.457-302.923,4820.37-303.041z
		"/>
	<path fill="#FF6600" d="M4819.867-303.666c0.094,0.106,0.188,0.211,0.276,0.32C4820.054-303.456,4819.96-303.56,4819.867-303.666z"
		/>
	<path fill="#FF6600" d="M4820.807-302.382c0.08,0.134,0.16,0.268,0.232,0.406C4820.966-302.115,4820.886-302.248,4820.807-302.382z
		"/>
	<path fill="#FF6600" d="M4821.733-300.164c0.042,0.161,0.085,0.322,0.118,0.486
		C4821.818-299.843,4821.774-300.003,4821.733-300.164z"/>
	<path fill="#FF6600" d="M4733.307-394.819c0.141,0.105,0.282,0.209,0.417,0.323
		C4733.589-394.609,4733.448-394.714,4733.307-394.819z"/>
	<path fill="#FF6600" d="M4731.629-395.796c0.247,0.107,0.488,0.225,0.724,0.355
		C4732.118-395.571,4731.877-395.689,4731.629-395.796z"/>
	<path fill="#FF6600" d="M4733.979-394.263c0.122,0.112,0.244,0.224,0.36,0.343C4734.224-394.039,4734.102-394.151,4733.979-394.263
		z"/>
	<path fill="#FF6600" d="M4728.247-396.5c1.166,0,2.306,0.24,3.355,0.691C4730.573-396.252,4729.439-396.5,4728.247-396.5z"/>
	<path fill="#FF6600" d="M4732.529-395.334c0.18,0.105,0.359,0.213,0.531,0.331C4732.888-395.121,4732.709-395.229,4732.529-395.334
		z"/>
	<path fill="#FF6600" d="M4550.177-251.342h221.497c4.694,0,8.5-3.806,8.5-8.5s-3.806-8.5-8.5-8.5h-221.497
		c-4.694,0-8.5,3.806-8.5,8.5S4545.482-251.342,4550.177-251.342z"/>
	<path fill="#FF6600" d="M4550.177-198.915h221.497c4.694,0,8.5-3.806,8.5-8.5s-3.806-8.5-8.5-8.5h-221.497
		c-4.694,0-8.5,3.806-8.5,8.5S4545.482-198.915,4550.177-198.915z"/>
	<g>
		<path fill="#FF6600" d="M4771.674-268.342h-221.497c-4.694,0-8.5,3.806-8.5,8.5s3.806,8.5,8.5,8.5h221.497
			c4.694,0,8.5-3.806,8.5-8.5S4776.368-268.342,4771.674-268.342z"/>
		<path fill="#FF6600" d="M4780.174-207.415c0-4.694-3.806-8.5-8.5-8.5h-221.497c-4.694,0-8.5,3.806-8.5,8.5s3.806,8.5,8.5,8.5
			h221.497C4776.368-198.915,4780.174-202.72,4780.174-207.415z"/>
		<path fill="#FF6600" d="M4731.318-160.282c0-4.694-3.806-8.5-8.5-8.5h-172.642c-4.694,0-8.5,3.806-8.5,8.5s3.806,8.5,8.5,8.5
			h172.642C4727.513-151.782,4731.318-155.588,4731.318-160.282z"/>
		<path fill="#FF6600" d="M4667.573-114.209c0-4.694-3.806-8.5-8.5-8.5h-108.896c-4.694,0-8.5,3.806-8.5,8.5s3.806,8.5,8.5,8.5
			h108.896C4663.768-105.709,4667.573-109.515,4667.573-114.209z"/>
		<path fill="#FF6600" d="M4550.177-73.458c-4.694,0-8.5,3.806-8.5,8.5s3.806,8.5,8.5,8.5h72.022c4.694,0,8.5-3.806,8.5-8.5
			s-3.806-8.5-8.5-8.5H4550.177z"/>
		<path fill="#FF6600" d="M4821.971-298.868c-0.014-0.138-0.039-0.273-0.059-0.409c-0.02-0.134-0.035-0.269-0.061-0.4
			c-0.032-0.164-0.076-0.325-0.118-0.486c-0.026-0.101-0.048-0.204-0.078-0.303c-0.049-0.165-0.109-0.326-0.168-0.487
			c-0.034-0.094-0.065-0.189-0.103-0.281c-0.063-0.154-0.134-0.303-0.206-0.453c-0.046-0.096-0.089-0.194-0.139-0.288
			c-0.072-0.138-0.153-0.272-0.232-0.406c-0.061-0.101-0.119-0.203-0.183-0.301c-0.08-0.122-0.167-0.24-0.254-0.358
			c-0.075-0.102-0.148-0.206-0.228-0.305c-0.088-0.11-0.182-0.215-0.276-0.32c-0.063-0.071-0.12-0.146-0.185-0.215l-85.266-89.966
			c-0.024-0.026-0.052-0.047-0.076-0.073c-0.116-0.12-0.238-0.232-0.36-0.343c-0.085-0.078-0.168-0.158-0.256-0.233
			c-0.135-0.114-0.276-0.218-0.417-0.323c-0.083-0.061-0.162-0.126-0.247-0.184c-0.172-0.118-0.351-0.226-0.531-0.331
			c-0.059-0.035-0.116-0.073-0.176-0.107c-0.236-0.13-0.477-0.248-0.724-0.355c-0.009-0.004-0.018-0.009-0.027-0.013
			c-1.049-0.451-2.19-0.691-3.355-0.691h-223.614c-4.694,0-8.5,3.806-8.5,8.5V40.349c0,4.694,3.806,8.5,8.5,8.5h155.226
			c-2.666-5.487-5.005-11.161-6.985-17h-139.741V-379.5h206.614v81.466c0,4.694,3.806,8.5,8.5,8.5h76.766v126.989
			c5.766,0.478,11.439,1.284,17,2.407v-137.897C4822.013-298.315,4821.998-298.594,4821.971-298.868z M4736.747-306.534v-60.141
			l56.999,60.141H4736.747z"/>
		<path fill="#FF6600" d="M4822.013-140.821c-5.539-1.294-11.215-2.223-17-2.774c-4.046-0.385-8.145-0.59-12.29-0.59
			c-70.989,0-128.741,57.753-128.741,128.742c0,16.688,3.193,32.644,8.998,47.292c2.335,5.892,5.094,11.57,8.237,17
			c22.281,38.495,63.918,64.45,111.506,64.45c70.989,0,128.741-57.753,128.741-128.742
			C4921.464-76.359,4878.937-127.526,4822.013-140.821z M4792.723,100.508c-40.171,0-75.631-20.537-96.445-51.659
			c-3.591-5.369-6.746-11.052-9.414-17c-6.48-14.45-10.091-30.456-10.091-47.292c0-63.936,52.015-115.951,115.95-115.951
			c4.151,0,8.25,0.224,12.29,0.652c5.804,0.614,11.481,1.657,17,3.099c49.8,13.01,86.66,58.38,86.66,112.2
			C4908.673,48.493,4856.658,100.508,4792.723,100.508z"/>
		<path fill="#FF6600" d="M4864.322-65.166c-3.623-2.984-8.981-2.465-11.964,1.159l-30.346,36.856l-17,20.647l-20.16,24.485
			l-50.388-40.077c-3.675-2.923-9.021-2.313-11.943,1.361s-2.313,9.021,1.361,11.943l51.095,40.639l5.833,4.64
			c0.079,0.063,0.162,0.117,0.242,0.176c0.104,0.077,0.207,0.156,0.313,0.227c0.101,0.068,0.205,0.128,0.308,0.191
			c0.106,0.065,0.212,0.133,0.32,0.193c0.111,0.061,0.225,0.115,0.337,0.171c0.104,0.052,0.207,0.106,0.312,0.153
			c0.126,0.056,0.254,0.104,0.382,0.153c0.095,0.037,0.188,0.078,0.284,0.111c0.146,0.051,0.295,0.092,0.443,0.135
			c0.08,0.023,0.158,0.05,0.238,0.071c0.174,0.044,0.35,0.079,0.525,0.112c0.056,0.011,0.112,0.026,0.168,0.035
			c0.222,0.037,0.445,0.065,0.669,0.084c0.011,0.001,0.021,0.003,0.032,0.004c0.237,0.02,0.474,0.03,0.711,0.03
			c0.133,0,0.265-0.016,0.397-0.022c0.176-0.008,0.352-0.01,0.526-0.029c0.138-0.015,0.273-0.045,0.41-0.067
			c0.169-0.027,0.339-0.047,0.506-0.084c0.14-0.031,0.276-0.077,0.415-0.114c0.161-0.044,0.323-0.082,0.481-0.135
			c0.14-0.047,0.275-0.109,0.413-0.164c0.151-0.06,0.306-0.115,0.454-0.184c0.139-0.065,0.271-0.143,0.406-0.216
			c0.142-0.075,0.285-0.145,0.422-0.229c0.136-0.083,0.265-0.18,0.396-0.271c0.129-0.089,0.261-0.173,0.386-0.27
			c0.128-0.1,0.249-0.213,0.373-0.321c0.119-0.104,0.242-0.203,0.356-0.315c0.116-0.114,0.223-0.24,0.334-0.362
			c0.096-0.106,0.199-0.203,0.291-0.315l2.792-3.39l9.557-11.608l17-20.647l43.469-52.794
			C4868.466-56.825,4867.947-62.182,4864.322-65.166z"/>
	</g>
</g>
</svg>
