
<svg version="1.1" id="Слой_2" xmlns="http://www.w3.org/2000/svg" xmlns:xlink="http://www.w3.org/1999/xlink" x="0px" y="0px"
	 width="359.917px" height="512px" viewBox="297.941 -1786.44 359.917 512" enable-background="new 297.941 -1786.44 359.917 512"
	 xml:space="preserve">

<path fill="#FF6600" d="M374.612-1459.736c-21.492,0-38.977,17.485-38.977,38.977c0,21.492,17.485,38.977,38.977,38.977
	c21.492,0,38.977-17.485,38.977-38.977C413.589-1442.251,396.103-1459.736,374.612-1459.736z M374.612-1396.989
	c-13.107,0-23.769-10.663-23.769-23.769s10.663-23.769,23.769-23.769c13.106,0,23.769,10.663,23.769,23.769
	S387.718-1396.989,374.612-1396.989z"/>
<path fill="#FF6600" d="M581.188-1459.736c-21.492,0-38.977,17.485-38.977,38.977c0,21.492,17.485,38.977,38.977,38.977
	s38.977-17.485,38.977-38.977C620.165-1442.251,602.681-1459.736,581.188-1459.736z M581.188-1396.989
	c-13.107,0-23.769-10.663-23.769-23.769s10.663-23.769,23.769-23.769s23.769,10.663,23.769,23.769
	S594.295-1396.989,581.188-1396.989z"/>
<path fill="#FF6600" d="M651.462-1477.036c-4.078-4.846-9.646-8.059-15.755-9.216l-30.623-98.585
	c-4.324-13.923-17.025-23.278-31.605-23.278H379.267c-14.58,0-27.281,9.355-31.605,23.278l-3.302,10.631
	c-0.002,0.005-0.004,0.01-0.006,0.015c-0.002,0.006-0.003,0.011-0.004,0.017l-27.572,88.766c-4.795,1.552-9.114,4.417-12.44,8.371
	c-5.187,6.166-7.372,14.256-5.993,22.194l13.785,79.37c1.237,7.125,5.406,13.072,11.129,16.738v17.554
	c0,4.2,3.404,7.604,7.604,7.604h11.99v38.794c0,11.216,9.125,20.341,20.341,20.341h25.238c11.216,0,20.341-9.125,20.341-20.341
	v-38.794h133.437v38.794c0,11.216,9.125,20.341,20.341,20.341h25.238c11.216,0,20.341-9.125,20.341-20.341v-38.794h13.755
	c4.2,0,7.604-3.404,7.604-7.604v-15.874c7.279-3.337,12.73-10.077,14.178-18.418l13.785-79.37
	C658.833-1462.781,656.649-1470.871,651.462-1477.036z M379.267-1592.907H573.48c7.88,0,14.745,5.056,17.083,12.581l0.241,0.777
	c-19.877-0.036-67.264-0.119-114.667-0.165c-36.124-0.036-64.916-0.044-85.572-0.022c-11.683,0.011-21.424,0.031-28.247,0.065
	c-0.115,0-0.222,0.001-0.335,0.002l0.204-0.656C364.523-1587.851,371.388-1592.907,379.267-1592.907z M357.249-1564.436
	c29.225-0.231,174.158-0.019,238.28,0.102l24.102,77.595H333.116L357.249-1564.436z M393.566-1294.781
	c0,2.831-2.302,5.133-5.133,5.133h-25.238c-2.831,0-5.133-2.302-5.133-5.133v-38.794h35.505v38.794H393.566z M592.924-1294.781
	c0,2.831-2.302,5.133-5.133,5.133h-25.238c-2.831,0-5.133-2.302-5.133-5.133v-38.794h35.505v38.794H592.924z M614.283-1348.784
	h-13.755h-50.713H401.17h-50.713h-11.99v-5.995h275.817L614.283-1348.784L614.283-1348.784z M642.471-1457.444l-13.785,79.37
	c-0.814,4.686-4.856,8.088-9.612,8.088H336.727c-4.756,0-8.799-3.401-9.612-8.088l-13.785-79.37
	c-0.609-3.506,0.356-7.078,2.646-9.802c2.29-2.723,5.645-4.285,9.204-4.285h304.776h0.665c3.559,0,6.913,1.561,9.203,4.285
	C642.115-1464.523,643.079-1460.95,642.471-1457.444z"/>
<path fill="#FF6600" d="M519.308-1445.363h-82.986c-4.2,0-7.604,3.404-7.604,7.604v34.001c0,4.2,3.404,7.604,7.604,7.604h82.986
	c4.2,0,7.604-3.404,7.604-7.604v-34.001C526.912-1441.96,523.508-1445.363,519.308-1445.363z M511.704-1411.362h-67.778v-18.793
	h67.778V-1411.362z"/>
<path fill="#FF6600" d="M367.79-1678.429h142.118c12.864,21.819,36.05,35.175,61.637,35.175c39.478,0,71.594-32.117,71.594-71.593
	c0-39.477-32.117-71.594-71.594-71.594c-25.587,0-48.773,13.356-61.637,35.175H459.65c-1.572,0-3.105,0.487-4.389,1.395
	l-10.384,7.34l-13.511-7.732c-2.292-1.314-5.104-1.34-7.421-0.073l-14.522,7.932l-11.36-7.584c-2.733-1.824-6.328-1.685-8.912,0.34
	l-8.278,6.488l-8.431-6.519c-1.331-1.03-2.968-1.588-4.651-1.588c-20.082,0-36.418,16.337-36.418,36.419
	S347.709-1678.429,367.79-1678.429z M365.371-1735.921l10.882,8.414c2.752,2.129,6.601,2.117,9.341-0.03l8.604-6.742l10.609,7.082
	c2.352,1.571,5.384,1.704,7.868,0.349l14.83-8.1l14.028,8.027c2.565,1.467,5.752,1.316,8.166-0.391l12.369-8.744h49.22
	c0.73,0,1.485,0.041,2.245,0.121c3.138,0.333,6.175-1.32,7.596-4.152c9.64-19.211,28.959-31.145,50.418-31.145
	c31.091,0,56.386,25.295,56.386,56.386s-25.295,56.385-56.386,56.385c-21.459,0-40.779-11.934-50.418-31.145
	c-1.299-2.59-3.942-4.194-6.793-4.194c-0.267,0-0.534,0.014-0.803,0.043c-0.759,0.08-1.515,0.121-2.245,0.121H367.79
	c-11.695,0-21.21-9.515-21.21-21.21C346.58-1725.723,354.811-1734.715,365.371-1735.921z"/>
<path fill="#FF6600" d="M587.853-1692.214c13.497,0,24.478-10.981,24.478-24.479s-10.981-24.479-24.478-24.479
	c-13.497,0-24.479,10.981-24.479,24.479S574.356-1692.214,587.853-1692.214z M587.853-1725.964c5.111,0,9.27,4.159,9.27,9.271
	c0,5.112-4.159,9.271-9.27,9.271c-5.112,0-9.271-4.159-9.271-9.271C578.582-1721.805,582.741-1725.964,587.853-1725.964z"/>
</svg>
