
<svg version="1.1" id="Layer_1" xmlns="http://www.w3.org/2000/svg" xmlns:xlink="http://www.w3.org/1999/xlink" x="0px" y="0px"
	 width="422.046px" height="472.163px" viewBox="923.926 -1171.411 422.046 472.163"
	 enable-background="new 923.926 -1171.411 422.046 472.163" xml:space="preserve">

<g>
	<path fill="#FF6600" d="M1187.397-1132.267l-33.643-5.522l-15.648-30.29c-1.058-2.046-3.168-3.332-5.472-3.332
		s-4.415,1.285-5.472,3.332l-15.647,30.291l-33.643,5.522c-2.273,0.374-4.148,1.984-4.86,4.175
		c-0.712,2.191-0.141,4.596,1.478,6.234l23.972,24.242l-5.144,33.703c-0.347,2.277,0.604,4.558,2.468,5.912
		c1.863,1.354,4.327,1.556,6.385,0.521l30.464-15.307l30.463,15.307c0.874,0.439,1.821,0.656,2.764,0.656
		c1.278,0,2.549-0.397,3.621-1.177c1.864-1.353,2.816-3.635,2.468-5.912l-5.144-33.703l23.971-24.242
		c1.619-1.638,2.19-4.043,1.478-6.234C1191.546-1130.283,1189.67-1131.893,1187.397-1132.267z M1155.873-1104.076
		c-1.369,1.385-2.003,3.336-1.709,5.26l3.812,24.977l-22.576-11.343c-0.87-0.438-1.817-0.656-2.765-0.656
		c-0.948,0-1.895,0.219-2.765,0.656l-22.577,11.343l3.813-24.977c0.294-1.925-0.34-3.876-1.709-5.26l-17.765-17.966l24.933-4.092
		c1.922-0.316,3.58-1.522,4.475-3.251l11.597-22.448l11.597,22.448c0.893,1.729,2.553,2.935,4.475,3.251l24.933,4.092
		L1155.873-1104.076z"/>
</g>
<g>
	<g>
		<g>
			<path fill="#FF6600" d="M1015.66-796.776c-4.694,0-8.5-3.806-8.5-8.5v-209.99c0-4.694,3.806-8.5,8.5-8.5s8.5,3.806,8.5,8.5
				v209.99C1024.16-800.582,1020.354-796.776,1015.66-796.776z"/>
		</g>
		<g>
			<path fill="#FF6600" d="M1209.693-1006.766H1015.66c-4.694,0-8.5-3.806-8.5-8.5s3.806-8.5,8.5-8.5h194.033
				c4.694,0,8.5,3.806,8.5,8.5S1214.388-1006.766,1209.693-1006.766z"/>
		</g>
		<g>
			<path fill="#FF6600" d="M1207.14-796.776H1015.66c-4.694,0-8.5-3.806-8.5-8.5s3.806-8.5,8.5-8.5h191.479
				c4.694,0,8.5,3.806,8.5,8.5S1211.834-796.776,1207.14-796.776z"/>
		</g>
		<g>
			<path fill="#FF6600" d="M1279.449-901.912c-2.75,0-5.448-1.332-7.085-3.793l-69.748-104.853c-2.6-3.909-1.539-9.185,2.369-11.785
				c3.909-2.601,9.187-1.539,11.785,2.369l69.748,104.854c2.6,3.908,1.539,9.185-2.369,11.785
				C1282.702-902.373,1281.066-901.912,1279.449-901.912z"/>
		</g>
		<g>
			<path fill="#FF6600" d="M1207.69-796.775c-1.65,0-3.317-0.479-4.783-1.48c-3.878-2.646-4.876-7.935-2.23-11.812l71.743-105.137
				c2.647-3.878,7.936-4.876,11.813-2.23c3.878,2.646,4.876,7.935,2.23,11.812l-71.743,105.137
				C1213.073-798.074,1210.405-796.775,1207.69-796.775z"/>
		</g>
	</g>
	<g>
		<g>
			<path fill="#FF6600" d="M1103.111-855.497c-4.694,0-8.5-3.806-8.5-8.5v-92.549c0-4.694,3.806-8.5,8.5-8.5s8.5,3.806,8.5,8.5
				v92.549C1111.611-859.303,1107.806-855.497,1103.111-855.497z"/>
		</g>
		<g>
			<path fill="#FF6600" d="M1155.608-948.046h-52.497c-4.694,0-8.5-3.806-8.5-8.5s3.806-8.5,8.5-8.5h52.497
				c4.694,0,8.5,3.806,8.5,8.5S1160.303-948.046,1155.608-948.046z"/>
		</g>
		<g>
			<path fill="#FF6600" d="M1155.608-855.497h-52.497c-4.694,0-8.5-3.806-8.5-8.5s3.806-8.5,8.5-8.5h52.497
				c4.694,0,8.5,3.806,8.5,8.5S1160.303-855.497,1155.608-855.497z"/>
		</g>
		<g>
			<path fill="#FF6600" d="M1155.608-901.771h-52.497c-4.694,0-8.5-3.806-8.5-8.5s3.806-8.5,8.5-8.5h52.497
				c4.694,0,8.5,3.806,8.5,8.5S1160.303-901.771,1155.608-901.771z"/>
		</g>
	</g>
</g>
<g>
	<path fill="#FF6600" d="M1194.52-1112.718l-13.749,13.905c84.942,20.646,148.201,97.339,148.201,188.542
		c0,106.984-87.038,194.023-194.022,194.023s-194.023-87.039-194.023-194.023c0-89.873,61.427-165.659,144.498-187.607
		l-13.611-13.765c-85.612,26.901-147.886,106.998-147.886,201.371c0,116.358,94.665,211.023,211.023,211.023
		s211.022-94.665,211.022-211.023C1345.972-1005.948,1281.961-1086.944,1194.52-1112.718z"/>
</g>
</svg>
