
<svg version="1.1" id="Layer_1" xmlns="http://www.w3.org/2000/svg" xmlns:xlink="http://www.w3.org/1999/xlink" x="0px" y="0px"
	 width="418.825px" height="411.691px" viewBox="922.426 -1679.863 418.825 411.691"
	 enable-background="new 922.426 -1679.863 418.825 411.691" xml:space="preserve">

<g>
	<path fill="#FF6600" d="M1232.708-1651.194c-4.007-16.686-19.101-28.669-36.352-28.669c-4.761,0-8.634,3.893-8.634,8.679
		s3.873,8.679,8.634,8.679c11.048,0,20.036,8.968,20.036,19.991c0,11.023-8.988,19.991-20.036,19.991
		c-4.761,0-8.634,3.894-8.634,8.679c0,4.785,3.873,8.678,8.634,8.678c17.251,0,32.345-11.984,36.352-28.67h91.229v61.519H939.783
		v-61.519h120.358c4.785,0,8.678-3.893,8.678-8.678c0-4.786-3.893-8.679-8.678-8.679h-10.769
		c3.316-6.845,10.28-11.312,17.946-11.312c11.023,0,19.991,8.968,19.991,19.991c0,11.023-8.968,19.991-19.991,19.991
		c-4.785,0-8.678,3.894-8.678,8.679c0,4.785,3.893,8.678,8.678,8.678c20.594,0,37.349-16.754,37.349-37.348
		c0-20.594-16.755-37.349-37.349-37.349c-17.266,0-32.346,11.983-36.318,28.669H922.426v383.021h418.825v-383.021H1232.708z
		 M939.783-1285.53v-269.431h384.154v269.431H939.783z"/>
	<path fill="#FF6600" d="M1110.347-1662.506c11.023,0,19.991,8.968,19.991,19.991s-8.968,19.991-19.991,19.991
		c-4.785,0-8.679,3.894-8.679,8.679c0,4.785,3.894,8.678,8.679,8.678c20.594,0,37.349-16.754,37.349-37.348
		c0-20.594-16.755-37.349-37.349-37.349c-4.785,0-8.679,3.893-8.679,8.679S1105.562-1662.506,1110.347-1662.506z"/>
	<path fill="#FF6600" d="M1153.374-1662.506c11.023,0,19.991,8.968,19.991,19.991s-8.968,19.991-19.991,19.991
		c-4.785,0-8.679,3.894-8.679,8.679c0,4.785,3.894,8.678,8.679,8.678c20.594,0,37.349-16.754,37.349-37.348
		c0-20.594-16.755-37.349-37.349-37.349c-4.785,0-8.679,3.893-8.679,8.679S1148.589-1662.506,1153.374-1662.506z"/>
	<path fill="#FF6600" d="M988.942-1390.894l18.604-18.018c8.35-7.861,14.319-14.099,17.907-18.713
		c3.59-4.614,6.25-9.093,7.984-13.44c1.732-4.345,2.6-8.936,2.6-13.77c0-8.789-3.003-15.784-9.009-20.984s-13.989-7.8-23.95-7.8
		c-6.348,0-12.33,1.051-17.944,3.149c-5.615,2.1-11.401,5.665-17.358,10.693l9.302,11.353c5.028-3.955,9.46-6.689,13.294-8.203
		c3.832-1.513,7.8-2.271,11.901-2.271c5.127,0,9.143,1.392,12.048,4.175s4.358,6.592,4.358,11.426c0,3.516-0.611,6.812-1.831,9.888
		c-1.221,3.076-3.162,6.361-5.822,9.851c-2.662,3.492-8.069,9.412-16.224,17.761l-27.612,27.759V-1375h72.583v-15.161h-50.83
		V-1390.894z"/>
	<path fill="#FF6600" d="M1088.991-1483.765c-12.257,0-21.375,4.48-27.355,13.44c-5.982,8.961-8.973,22.888-8.973,41.785
		c0,18.018,3.076,31.69,9.229,41.016c6.152,9.327,15.186,13.989,27.1,13.989c12.305,0,21.447-4.516,27.43-13.55
		c5.98-9.033,8.972-22.852,8.972-41.455c0-18.065-3.076-31.787-9.229-41.162S1100.954-1483.765,1088.991-1483.765z
		 M1103.456-1397.412c-3.052,6.348-7.873,9.521-14.465,9.521s-11.389-3.124-14.393-9.375c-3.002-6.25-4.504-16.674-4.504-31.274
		c0-14.599,1.502-25.049,4.504-31.348c3.004-6.299,7.801-9.448,14.393-9.448s11.413,3.211,14.465,9.631
		c3.052,6.421,4.578,16.809,4.578,31.165C1108.034-1414.135,1106.508-1403.759,1103.456-1397.412z"/>
	<path fill="#FF6600" d="M1143.117-1457.324l8.643,10.913c9.326-7.568,14.807-12.06,16.443-13.477
		c1.635-1.416,3.014-2.71,4.138-3.882c-0.392,4.834-0.586,11.378-0.586,19.629V-1375h17.212v-107.08h-14.355L1143.117-1457.324z"/>
	<polygon fill="#FF6600" points="1222.878,-1466.772 1278.542,-1466.772 1236.208,-1375 1254.812,-1375 1296.926,-1469.922 
		1296.926,-1481.934 1222.878,-1481.934 	"/>
</g>
</svg>
