
<svg version="1.1" id="Layer_1" xmlns="http://www.w3.org/2000/svg" xmlns:xlink="http://www.w3.org/1999/xlink" x="0px" y="0px"
	 width="417.718px" height="348.098px" viewBox="922.426 -2213.833 417.718 348.098"
	 enable-background="new 922.426 -2213.833 417.718 348.098" xml:space="preserve">

<g>
	<path fill="#FF6600" d="M1305.334-2161.619h-87.025v-17.405c0-19.198-15.62-34.81-34.81-34.81H1079.07
		c-19.19,0-34.81,15.612-34.81,34.81v17.405h-87.025c-19.19,0-34.81,15.612-34.81,34.81v226.264c0,19.198,15.62,34.81,34.81,34.81
		h348.098c19.19,0,34.81-15.612,34.81-34.81v-226.264C1340.143-2146.007,1324.523-2161.619,1305.334-2161.619z M1322.739-2126.809
		v33.93c-26.576-3.853-47.482-24.759-51.335-51.335h33.93C1314.937-2144.214,1322.739-2136.404,1322.739-2126.809z
		 M1322.739-2075.474v123.594c-36.159,4.068-64.672,32.581-68.74,68.74h-245.428c-4.068-36.159-32.581-64.672-68.74-68.74v-123.594
		c36.159-4.068,64.672-32.581,68.74-68.74h245.428C1258.066-2108.055,1286.58-2079.541,1322.739-2075.474z M1061.665-2179.023
		c0-9.595,7.802-17.405,17.405-17.405h104.429c9.603,0,17.405,7.81,17.405,17.405v17.405h-139.239V-2179.023z M957.236-2144.214
		h33.93c-3.853,26.576-24.759,47.482-51.335,51.335v-33.93C939.831-2136.404,947.632-2144.214,957.236-2144.214z M939.831-1900.545
		v-33.93c26.576,3.853,47.482,24.759,51.335,51.335h-33.93C947.632-1883.14,939.831-1890.95,939.831-1900.545z M1305.334-1883.14
		h-33.93c3.853-26.576,24.759-47.482,51.335-51.335v33.93C1322.739-1890.95,1314.937-1883.14,1305.334-1883.14z"/>
	<path fill="#FF6600" d="M1126.933-2039.784h30.459c4.81,0,8.703-3.892,8.703-8.702c0-4.81-3.892-8.703-8.703-8.703h-17.405v-8.702
		c0-4.81-3.892-8.702-8.702-8.702c-4.81,0-8.703,3.892-8.703,8.702v9.142c-14.723,2.133-26.107,14.715-26.107,30.019
		c0,16.793,13.666,30.459,30.458,30.459h8.703c7.19,0,13.054,5.855,13.054,13.054s-5.864,13.054-13.054,13.054h-30.459
		c-4.81,0-8.702,3.892-8.702,8.702s3.892,8.702,8.702,8.702h17.405v8.703c0,4.81,3.892,8.702,8.703,8.702
		c4.81,0,8.702-3.892,8.702-8.702v-9.142c14.723-2.133,26.107-14.715,26.107-30.019c0-16.793-13.666-30.459-30.459-30.459h-8.703
		c-7.19,0-13.054-5.855-13.054-13.054C1113.88-2033.929,1119.744-2039.784,1126.933-2039.784z"/>
</g>
</svg>
